<svg aria-hidden="true" style="position: absolute; width: 0; height: 0; overflow: hidden;" version="1.1" xmlns="http://www.w3.org/2000/svg" xmlns:xlink="http://www.w3.org/1999/xlink">
<defs>
<symbol id="icon-moon-icon" viewBox="0 0 32 32">
<path fill="#fff4de" style="fill: var(--color1, black)" d="M29.875 15.875c0 7.732-6.268 14-14 14s-14-6.268-14-14c0-7.732 6.268-14 14-14s14 6.268 14 14z"></path>
<path fill="#fff9de" style="fill: var(--color2, #FF6B09)" d="M29.875 15.875c0 7.732-6.268 14-14 14s-14-6.268-14-14c0-7.732 6.268-14 14-14s14 6.268 14 14z"></path>
<path fill="#ffe082" style="fill: var(--color3, #FF6B09)" d="M29.365 19.63c-1.699 5.955-7.092 10.242-13.486 10.242-7.732 0-14-6.268-14-14 0-5.98 3.749-11.084 9.025-13.090l0.096-0.032c-0.326 1.127-0.514 2.421-0.514 3.759 0 7.732 6.268 14 14 14 1.748 0 3.422-0.321 4.965-0.906l-0.096 0.032z"></path>
<path fill="#ffeea3" style="fill: var(--color4, #FF6B09)" d="M17.515 5.723c0.939 0.786 1.201 2.019 0.586 2.754s-1.875 0.693-2.814-0.093c-0.939-0.786-1.201-2.019-0.586-2.754s1.875-0.693 2.814 0.093z"></path>
<path fill="#ffeea3" style="fill: var(--color4, #FF6B09)" d="M14.671 23.383c1.491 0.578 2.332 1.993 1.879 3.161s-2.028 1.645-3.519 1.067c-1.491-0.578-2.332-1.993-1.879-3.161s2.028-1.645 3.519-1.067z"></path>
<path fill="#ffeea3" style="fill: var(--color4, #FF6B09)" d="M15.4 15.451c0.816 0.683 1.045 1.755 0.51 2.393s-1.629 0.602-2.446-0.082c-0.816-0.683-1.045-1.755-0.51-2.393s1.629-0.602 2.446 0.082z"></path>
<path fill="#ffeea3" style="fill: var(--color4, #FF6B09)" d="M7.618 17.639c0.328 1.013-0.047 2.042-0.839 2.299s-1.7-0.356-2.029-1.368c-0.328-1.013 0.047-2.042 0.839-2.299s1.7 0.356 2.029 1.368z"></path>
<path fill="#ffeea3" style="fill: var(--color4, #FF6B09)" d="M22.492 21.575c0.775 0.251 1.244 0.946 1.048 1.553s-0.984 0.896-1.759 0.645c-0.775-0.251-1.244-0.946-1.048-1.553s0.984-0.896 1.759-0.645z"></path>
<path fill="#ffeea3" style="fill: var(--color4, #FF6B09)" d="M22.99 13.797c0.694 0.581 0.889 1.493 0.434 2.036s-1.386 0.512-2.081-0.070c-0.694-0.581-0.889-1.493-0.434-2.036s1.386-0.512 2.081 0.070z"></path>
<path fill="#ffeea3" style="fill: var(--color4, #FF6B09)" d="M25.359 8.158c0.615 0.665 0.691 1.594 0.171 2.075s-1.44 0.331-2.055-0.334c-0.615-0.665-0.691-1.594-0.171-2.075s1.44-0.331 2.055 0.334z"></path>
<path fill="#404b4f" style="fill: var(--color5, #FF6B09)" d="M13 13.77v-0.020l0.25-4.25 1.75 1.25h2l1.75-1.25 0.25 4.275c1.692-0.844 2.958-2.332 3.488-4.135l0.012-0.048c2.525-1.22 5.733-1.5 8.5-1.25-2.5 0.425-2.902 3.725-0.433 4.577-3.317-0.385-5.515 3.195-3.418 5.652-3.233-0.16-5.808 2.6-5.060 5.615-4.060-4.017-6.090 1.563-6.090 1.563s-1.098-3.017-3.295-3.017c-0.79 0-1.72 0.39-2.795 1.455 0.75-3.015-1.828-5.775-5.060-5.615 2.098-2.457-0.088-6.037-3.417-5.668 2.47-0.852 2.067-4.155-0.433-4.578 2.772-0.227 5.98 0.043 8.5 1.25v0c0.54 1.854 1.806 3.346 3.461 4.175l0.039 0.018z"></path>
<path fill="#5b6584" style="fill: var(--color6, black)" d="M13 13.77v-0.020l0.25-4.25 1.75 1.25h2l1.75-1.25 0.25 4.275c1.692-0.844 2.958-2.332 3.488-4.135l0.012-0.048c2.525-1.22 5.733-1.5 8.5-1.25-2.5 0.425-2.902 3.725-0.433 4.577-3.317-0.385-5.515 3.195-3.418 5.652-3.233-0.16-5.808 2.6-5.060 5.615-4.060-4.017-6.090 1.563-6.090 1.563s-1.098-3.017-3.295-3.017c-0.79 0-1.72 0.39-2.795 1.455 0.75-3.015-1.828-5.775-5.060-5.615 2.098-2.457-0.088-6.037-3.417-5.668 2.47-0.852 2.067-4.155-0.433-4.578 2.772-0.227 5.98 0.043 8.5 1.25v0c0.54 1.854 1.806 3.346 3.461 4.175l0.039 0.018z"></path>
<path fill="#677493" style="fill: var(--color7, black)" d="M9.475 9.578c-2.52-1.21-5.725-1.477-8.475-1.25 2.5 0.422 2.902 3.725 0.433 4.578 3.317-0.37 5.515 3.21 3.417 5.668 3.232-0.16 5.807 2.6 5.060 5.615 2.21-4.053 1.188-10.313-0.435-14.61z"></path>
<path fill="#677493" style="fill: var(--color7, black)" d="M22.525 9.578c2.52-1.207 5.715-1.475 8.475-1.25-2.5 0.425-2.902 3.725-0.433 4.578-3.317-0.37-5.515 3.21-3.418 5.668-3.233-0.16-5.808 2.6-5.060 5.615-2.21-4.053-1.188-10.313 0.435-14.61z"></path>
<path fill="#677493" style="fill: var(--color7, black)" d="M5.027 18.35c1.103-0.532 4.412-2.643 4.4-8.78-0.428 0.383-2.745 2.307-7.678 3.313 3.050-0.117 5 3.103 3.277 5.467z"></path>
<path fill="#7685a5" style="fill: var(--color8, black)" d="M1 8.328c2.5 0.422 2.902 3.725 0.433 4.578 2.25-0.25 6.215-1.713 8-3.345-2.51-1.193-5.683-1.457-8.432-1.232z"></path>
<path fill="#677493" style="fill: var(--color7, black)" d="M26.973 18.35c-1.102-0.532-4.412-2.643-4.4-8.78 0.422 0.385 2.75 2.31 7.683 3.313-3.055-0.117-5.005 3.103-3.282 5.467z"></path>
<path fill="#7685a5" style="fill: var(--color8, black)" d="M31 8.328c-2.5 0.425-2.902 3.725-0.433 4.578-2.25-0.25-6.215-1.713-8-3.345 2.51-1.193 5.683-1.457 8.433-1.232z"></path>
<path fill="#31352e" style="fill: var(--color9, black)" d="M16.53 14.72c0.136 0.136 0.22 0.323 0.22 0.531 0 0.414-0.336 0.75-0.75 0.75s-0.75-0.336-0.75-0.75c0-0.207 0.084-0.395 0.22-0.531v0z"></path>
<path fill="#31352e" style="fill: var(--color9, black)" d="M15.75 13.125c0 0.414-0.336 0.75-0.75 0.75s-0.75-0.336-0.75-0.75c0-0.414 0.336-0.75 0.75-0.75v0z"></path>
<path fill="#31352e" style="fill: var(--color9, black)" d="M17 12.375c0.414 0 0.75 0.336 0.75 0.75s-0.336 0.75-0.75 0.75c-0.414 0-0.75-0.336-0.75-0.75v0z"></path>
<path fill="#31352e" style="fill: var(--color9, black)" d="M31.125 9.068c0.358-0.061 0.627-0.369 0.627-0.74 0-0.394-0.303-0.716-0.689-0.748l-0.003-0c-0.548-0.047-1.186-0.074-1.83-0.074-0.404 0-0.806 0.011-1.206 0.032l0.056-0.002c-2.702-3.822-7.104-6.287-12.081-6.287-4.253 0-8.085 1.8-10.777 4.679l-0.008 0.008c-0.678 0.725 0.42 1.75 1.098 1.022 2.425-2.591 5.865-4.205 9.683-4.205 4.166 0 7.884 1.923 10.313 4.93l0.020 0.025c-1.547 0.209-2.949 0.634-4.245 1.247l0.087-0.037c-0.199 0.099-0.346 0.279-0.399 0.495l-0.001 0.005c-0.373 1.248-1.108 2.292-2.081 3.042l-0.014 0.010c-0.175-3.178-0.078-3.395-0.602-3.647s-0.75 0.050-2.313 1.178h-1.51c-1.578-1.127-1.8-1.422-2.313-1.178s-0.438 0.523-0.613 3.648c-0.997-0.773-1.737-1.835-2.097-3.060l-0.011-0.042c-0.3-0.947-4.732-2.16-9.277-1.785-0.388 0.031-0.692 0.354-0.692 0.748 0 0.371 0.269 0.678 0.622 0.739l0.004 0.001c1.71 0.29 2.070 2.522 0.313 3.127-0.291 0.108-0.494 0.383-0.494 0.705 0 0.412 0.332 0.747 0.744 0.75h0c-0.12 0.706-0.188 1.518-0.188 2.347 0 8.146 6.604 14.75 14.75 14.75s14.75-6.604 14.75-14.75c0-0.342-0.012-0.681-0.035-1.018l0.002 0.045c-0.026-0.393-0.351-0.702-0.748-0.702-0.017 0-0.034 0.001-0.051 0.002l0.002-0c-0.393 0.026-0.702 0.351-0.702 0.748 0 0.017 0.001 0.034 0.002 0.051l-0-0.002c0.018 0.261 0.029 0.565 0.029 0.872 0 7.318-5.932 13.25-13.25 13.25s-13.25-5.932-13.25-13.25c0-0.777 0.067-1.538 0.195-2.278l-0.011 0.079c0.731 0.244 1.321 0.746 1.675 1.395l0.008 0.015c0.195 0.346 0.31 0.76 0.31 1.2 0 0.518-0.159 0.999-0.431 1.396l0.005-0.009c-0.292 0.107-0.497 0.383-0.497 0.706 0 0.084 0.014 0.164 0.039 0.239l-0.002-0.005c0.136 0.344 0.465 0.584 0.85 0.587h0c0.077-0.005 0.167-0.008 0.258-0.008 1.325 0 2.511 0.595 3.307 1.531l0.005 0.006c0.514 0.609 0.826 1.402 0.826 2.269 0 0.178-0.013 0.353-0.039 0.523l0.002-0.019c-0.088 0.142-0.143 0.235-0.152 0.25-0.063 0.108-0.101 0.237-0.101 0.375 0 0.414 0.336 0.75 0.75 0.75 0.001 0 0.002 0 0.003 0h-0c0.299-0.002 0.567-0.136 0.749-0.346l0.001-0.001c0.947-0.918 1.807-1.297 2.55-1.135 1.183 0.25 2.020 1.885 2.25 2.488 0.108 0.291 0.383 0.494 0.705 0.494s0.597-0.203 0.703-0.489l0.002-0.005c0.223-0.602 1.058-2.227 2.25-2.5 0.75-0.163 1.605 0.22 2.555 1.14 0.151 0.182 0.376 0.297 0.629 0.297 0.45 0 0.815-0.365 0.815-0.815 0-0.095-0.016-0.186-0.046-0.27l0.002 0.006c0-0.017-0.063-0.11-0.152-0.25-0.023-0.15-0.036-0.323-0.036-0.5 0-0.868 0.314-1.664 0.835-2.278l-0.004 0.005c0.799-0.943 1.985-1.538 3.309-1.538 0.092 0 0.183 0.003 0.273 0.008l-0.012-0.001c0.005 0 0.011 0 0.016 0 0.403 0 0.75-0.238 0.908-0.581l0.003-0.006c0.024-0.070 0.038-0.151 0.038-0.235 0-0.33-0.213-0.611-0.51-0.711l-0.005-0.002-0.102-0.025c-0.25-0.38-0.399-0.846-0.399-1.348 0-0.439 0.115-0.852 0.315-1.21l-0.006 0.012c0.534-0.952 1.536-1.585 2.687-1.585 0.146 0 0.289 0.010 0.429 0.030l-0.016-0.002c0.026 0.003 0.055 0.005 0.086 0.005 0.414 0 0.75-0.336 0.75-0.75 0-0.328-0.21-0.606-0.503-0.708l-0.005-0.002c-0.78-0.27-1.21-0.875-1.148-1.623 0.074-0.784 0.681-1.405 1.452-1.502l0.008-0.001zM4.532 12.932c1.263-0.4 2.344-0.864 3.369-1.418l-0.102 0.050c0.264-0.12 0.444-0.381 0.444-0.685 0-0.414-0.336-0.75-0.75-0.75-0.151 0-0.292 0.045-0.409 0.122l0.003-0.002c-0.963 0.523-2.087 0.991-3.26 1.342l-0.128 0.033c0.089-0.273 0.141-0.588 0.141-0.914 0-0.090-0.004-0.179-0.012-0.267l0.001 0.011c-0.048-0.541-0.228-1.032-0.507-1.451l0.007 0.011c1.635 0.043 3.61 0.297 5.402 1.063-0.1 3.338-1.25 5.293-2.328 6.4 0.001-0.028 0.001-0.060 0.001-0.093 0-0.689-0.173-1.339-0.477-1.907l0.011 0.022c-0.344-0.638-0.819-1.164-1.393-1.558l-0.015-0.010zM21.407 21.762c-0.582-0.711-1.225-1.335-1.933-1.88l-0.027-0.020c-0.797-0.587-1.698 0.617-0.892 1.207 0.384 0.292 0.725 0.597 1.039 0.927l0.003 0.003c-1.547-0.145-2.75 0.83-3.598 2.125-0.84-1.3-2.050-2.275-3.598-2.125 0.318-0.331 0.658-0.634 1.021-0.909l0.022-0.016c0.797-0.59-0.095-1.797-0.893-1.205-0.735 0.565-1.378 1.189-1.944 1.879l-0.016 0.021c-0.209-0.717-0.544-1.339-0.984-1.871l0.007 0.009c-0.707-0.845-1.641-1.478-2.71-1.804l-0.040-0.011c1.197-1 2.617-2.768 3.155-5.813 0.7 0.907 1.581 1.639 2.592 2.15l0.043 0.020c0.096 0.048 0.21 0.076 0.33 0.076 0.292 0 0.544-0.166 0.668-0.41l0.002-0.004c0.123-0.25 0.105-0.793 0.25-3.207 0.675 0.467 0.787 0.595 1.095 0.595 2.592 0 2.022 0.155 3.080-0.6 0.172 2.95 0.040 3.275 0.59 3.545 0.096 0.049 0.209 0.078 0.328 0.078 0.053 0 0.104-0.006 0.154-0.016l-0.005 0.001c0.302-0.060 1.78-0.832 2.885-2.315 0.525 3.080 1.945 4.875 3.15 5.878-1.814 0.516-3.22 1.895-3.765 3.654l-0.010 0.039zM26.060 14.512c-0.294 0.542-0.47 1.186-0.475 1.871v0.002c-1.058-1.13-2.16-3.080-2.25-6.335 1.575-0.639 3.4-1.022 5.311-1.050l0.011-0c-0.272 0.408-0.452 0.899-0.499 1.428l-0.001 0.012c-0.007 0.076-0.011 0.165-0.011 0.255 0 0.318 0.049 0.624 0.139 0.912l-0.006-0.022c-1.262-0.377-2.349-0.831-3.376-1.382l0.096 0.047c-0.872-0.473-1.585 0.85-0.712 1.32 0.907 0.494 1.97 0.949 3.077 1.307l0.135 0.038c-0.603 0.405-1.089 0.938-1.428 1.562l-0.012 0.023z"></path>
<path fill="#677493" style="fill: var(--color7, black)" d="M17.563 19.75c0 1.243-0.7 2.25-1.563 2.25s-1.563-1.007-1.563-2.25c0-1.243 0.7-2.25 1.563-2.25s1.563 1.007 1.563 2.25z"></path>
</symbol>
<symbol id="icon-sun-icon" viewBox="0 0 32 32">
<path fill="#000" style="fill: var(--color10, #000)" d="M14.707 31.889c-0.033 0-0.066-0.004-0.099-0.013-0.169-0.046-0.283-0.202-0.276-0.375l0.029-0.834c0.003-0.098 0.011-0.198 0.019-0.298 0.016-0.186 0.031-0.361 0.004-0.507-0.055-0.306-0.105-0.613-0.154-0.923-0.141-0.891-0.274-1.731-0.565-2.542-0.016-0.043-0.031-0.087-0.046-0.13-0.447 1.6-1.83 2.9-3.168 4.157l-0.215 0.204c-0.128 0.118-0.32 0.137-0.465 0.039-0.146-0.096-0.206-0.279-0.147-0.443l0.286-0.784c0.033-0.094 0.071-0.186 0.111-0.278 0.071-0.171 0.14-0.334 0.16-0.48 0.042-0.307 0.091-0.614 0.139-0.923 0.141-0.892 0.274-1.734 0.247-2.595-0.001-0.045-0.002-0.092-0.003-0.137-0.919 1.381-2.634 2.189-4.291 2.971l-0.273 0.129c-0.159 0.073-0.346 0.031-0.454-0.105-0.109-0.137-0.11-0.329-0.002-0.466l0.514-0.659c0.061-0.078 0.125-0.153 0.19-0.227 0.122-0.142 0.237-0.275 0.301-0.409 0.134-0.281 0.276-0.557 0.417-0.834 0.41-0.805 0.797-1.565 1.038-2.391 0.013-0.044 0.026-0.089 0.039-0.131-1.303 1.031-3.187 1.269-5.009 1.501l-0.291 0.036c-0.175 0.023-0.338-0.078-0.4-0.239-0.062-0.163-0.003-0.348 0.141-0.445l0.692-0.468c0.081-0.054 0.166-0.107 0.252-0.159 0.159-0.097 0.309-0.188 0.412-0.294 0.214-0.225 0.435-0.445 0.655-0.666 0.638-0.638 1.241-1.241 1.724-1.953 0.027-0.037 0.053-0.076 0.080-0.113-1.558 0.576-3.425 0.225-5.23-0.119l-0.288-0.054c-0.171-0.032-0.298-0.177-0.306-0.352-0.009-0.174 0.103-0.331 0.271-0.379l0.716-0.206c0.183-0.053 0.282-0.077 0.381-0.099 0.18-0.042 0.35-0.082 0.479-0.153 0.275-0.148 0.554-0.29 0.833-0.432 0.802-0.41 1.561-0.796 2.239-1.322 0.036-0.029 0.073-0.057 0.11-0.084-1.649 0.075-3.323-0.844-4.931-1.727l-0.26-0.143c-0.153-0.084-0.228-0.261-0.182-0.429 0.046-0.169 0.19-0.314 0.375-0.276l0.835 0.029c0.098 0.003 0.198 0.011 0.298 0.019 0.187 0.016 0.359 0.030 0.507 0.004 0.306-0.055 0.613-0.105 0.922-0.154 0.892-0.142 1.733-0.275 2.543-0.566 0.043-0.016 0.086-0.031 0.13-0.046-1.601-0.448-2.901-1.831-4.159-3.17l-0.202-0.213c-0.119-0.127-0.135-0.32-0.041-0.465 0.093-0.144 0.275-0.204 0.439-0.144l0.784 0.285c0.093 0.033 0.185 0.071 0.276 0.11 0.172 0.073 0.334 0.141 0.481 0.161 0.308 0.042 0.615 0.091 0.923 0.139 0.892 0.141 1.73 0.268 2.594 0.247 0.046-0.001 0.092-0.002 0.139-0.003-1.383-0.919-2.193-2.636-2.975-4.295l-0.128-0.27c-0.075-0.158-0.031-0.346 0.105-0.454 0.137-0.109 0.33-0.11 0.466-0.003l0.659 0.514c0.078 0.061 0.153 0.126 0.228 0.191 0.141 0.122 0.274 0.237 0.407 0.301 0.281 0.134 0.558 0.276 0.835 0.417 0.804 0.41 1.564 0.797 2.39 1.037 0.044 0.013 0.089 0.026 0.132 0.039-1.030-1.302-1.269-3.184-1.501-5.003l-0.037-0.298c-0.021-0.173 0.078-0.338 0.241-0.4 0.162-0.062 0.347-0.003 0.444 0.142l0.467 0.692c0.055 0.081 0.107 0.166 0.159 0.252 0.097 0.159 0.188 0.309 0.294 0.412 0.225 0.214 0.445 0.435 0.666 0.655 0.638 0.638 1.241 1.241 1.952 1.724 0.038 0.027 0.077 0.053 0.114 0.080-0.579-1.557-0.225-3.421 0.118-5.225l0.055-0.293c0.032-0.171 0.178-0.298 0.352-0.306 0.177-0.011 0.331 0.105 0.379 0.272l0.23 0.802c0.028 0.095 0.051 0.193 0.074 0.29 0.043 0.18 0.083 0.352 0.153 0.482 0.147 0.274 0.29 0.551 0.431 0.83 0.41 0.803 0.797 1.562 1.323 2.242 0.029 0.036 0.057 0.073 0.084 0.11-0.068-1.66 0.845-3.323 1.728-4.932l0.142-0.259c0.083-0.153 0.254-0.23 0.43-0.182 0.167 0.046 0.283 0.201 0.276 0.375l-0.029 0.834c-0.003 0.099-0.012 0.198-0.020 0.298-0.016 0.186-0.031 0.361-0.003 0.507 0.055 0.307 0.105 0.618 0.155 0.927 0.141 0.89 0.274 1.729 0.564 2.537 0.016 0.043 0.031 0.086 0.046 0.13 0.448-1.6 1.831-2.9 3.168-4.157l0.215-0.203c0.128-0.119 0.32-0.135 0.465-0.041 0.145 0.096 0.206 0.278 0.147 0.442l-0.284 0.785c-0.033 0.093-0.073 0.186-0.111 0.278-0.071 0.172-0.14 0.333-0.16 0.48-0.042 0.309-0.091 0.619-0.14 0.928-0.141 0.89-0.273 1.729-0.246 2.588 0.002 0.046 0.003 0.093 0.003 0.139 0.919-1.383 2.637-2.192 4.298-2.975l0.269-0.127c0.157-0.074 0.345-0.032 0.454 0.106 0.109 0.135 0.11 0.329 0.002 0.466l-0.512 0.657c-0.062 0.079-0.126 0.154-0.191 0.228-0.123 0.141-0.238 0.274-0.302 0.409-0.135 0.281-0.276 0.558-0.418 0.836-0.41 0.804-0.796 1.563-1.036 2.388-0.013 0.044-0.027 0.089-0.039 0.132 1.302-1.030 3.184-1.269 5.004-1.501l0.295-0.037c0.186-0.022 0.339 0.078 0.4 0.24 0.062 0.163 0.003 0.347-0.141 0.445l-0.691 0.467c-0.082 0.055-0.167 0.107-0.253 0.159-0.16 0.097-0.309 0.188-0.412 0.294-0.215 0.225-0.434 0.444-0.654 0.663-0.639 0.639-1.243 1.243-1.727 1.955-0.027 0.039-0.054 0.078-0.083 0.115 0 0 0.001 0 0.002-0.001 1.557-0.579 3.422-0.225 5.225 0.118l0.294 0.057c0.171 0.032 0.297 0.178 0.305 0.352s-0.105 0.331-0.272 0.379l-0.802 0.23c-0.096 0.028-0.192 0.051-0.29 0.074-0.181 0.043-0.353 0.082-0.483 0.153-0.275 0.148-0.553 0.29-0.831 0.432-0.803 0.41-1.562 0.796-2.24 1.323-0.036 0.029-0.075 0.057-0.111 0.084 1.658-0.068 3.324 0.844 4.932 1.728l0.26 0.143c0.154 0.084 0.228 0.261 0.182 0.43s-0.203 0.257-0.375 0.276l-0.834-0.029c-0.098-0.003-0.198-0.012-0.298-0.020-0.186-0.016-0.364-0.031-0.507-0.003-0.307 0.055-0.618 0.105-0.928 0.155-0.889 0.141-1.728 0.274-2.537 0.564v0c-0.043 0.016-0.087 0.031-0.131 0.045 1.6 0.448 2.9 1.83 4.157 3.167l0.205 0.218c0.119 0.127 0.137 0.319 0.041 0.464-0.096 0.147-0.282 0.21-0.442 0.148l-0.788-0.286c-0.092-0.033-0.185-0.073-0.278-0.111-0.171-0.071-0.333-0.14-0.478-0.16-0.309-0.042-0.619-0.091-0.929-0.14-0.89-0.141-1.73-0.271-2.589-0.246-0.046 0.002-0.094 0.003-0.14 0.002v0c1.385 0.919 2.193 2.636 2.975 4.297l0.128 0.271c0.075 0.158 0.031 0.346-0.105 0.454-0.138 0.108-0.331 0.11-0.467 0.002l-0.657-0.512c-0.079-0.062-0.154-0.126-0.228-0.191-0.141-0.122-0.275-0.238-0.41-0.302-0.281-0.135-0.557-0.276-0.835-0.418-0.804-0.41-1.564-0.796-2.389-1.036-0.045-0.014-0.090-0.028-0.133-0.042 1.033 1.303 1.271 3.188 1.503 5.011l0.036 0.29c0.023 0.173-0.077 0.339-0.239 0.4-0.166 0.063-0.349 0.003-0.445-0.141l-0.467-0.691c-0.055-0.082-0.107-0.167-0.16-0.253-0.097-0.16-0.188-0.309-0.293-0.413-0.225-0.214-0.444-0.433-0.663-0.653-0.639-0.639-1.243-1.243-1.956-1.727-0.039-0.027-0.078-0.055-0.115-0.085 0.001 0.001 0.001 0.002 0.002 0.004 0.579 1.559 0.225 3.425-0.119 5.23l-0.054 0.29c-0.032 0.17-0.177 0.297-0.352 0.305-0.163 0.010-0.331-0.102-0.379-0.271l-0.231-0.803c-0.028-0.096-0.050-0.192-0.073-0.29-0.043-0.181-0.083-0.353-0.153-0.483-0.149-0.275-0.291-0.555-0.434-0.834-0.41-0.802-0.796-1.559-1.321-2.237-0.029-0.037-0.057-0.075-0.084-0.111 0.069 1.661-0.845 3.325-1.729 4.934l-0.142 0.258c-0.061 0.123-0.189 0.195-0.323 0.195zM13.554 25.034c0.030 0 0.060 0.004 0.089 0.013l0.231 0.059c0.129 0.035 0.23 0.139 0.265 0.269 0.067 0.258 0.141 0.515 0.233 0.77 0.315 0.876 0.46 1.792 0.601 2.677 0.048 0.302 0.096 0.605 0.15 0.906 0.011 0.061 0.018 0.122 0.022 0.182 0.601-1.166 1.056-2.286 1.010-3.38-0.009-0.198 0.003-0.397 0.016-0.597l0.009-0.148c0.011-0.196 0.172-0.352 0.368-0.354 0.084-0.002 0.167-0.007 0.251-0.013 0.138 0.001 0.318 0.053 0.391 0.164 0.132 0.202 0.256 0.389 0.395 0.569 0.569 0.734 0.99 1.558 1.396 2.355 0.14 0.275 0.279 0.548 0.425 0.819 0.031 0.054 0.055 0.11 0.078 0.165 0.211-1.294 0.298-2.5-0.083-3.525-0.057-0.153-0.098-0.31-0.14-0.47l-0.043-0.162c-0.052-0.189 0.049-0.387 0.235-0.453l0.119-0.043c0.086-0.030 0.172-0.059 0.256-0.095 0.124-0.050 0.269-0.033 0.375 0.050 0.074 0.058 0.143 0.119 0.211 0.181 0.074 0.066 0.145 0.132 0.226 0.189 0.772 0.525 1.429 1.182 2.065 1.817 0.215 0.215 0.43 0.431 0.651 0.641 0.045 0.043 0.086 0.089 0.125 0.134-0.199-1.296-0.49-2.471-1.169-3.327-0.089-0.111-0.165-0.233-0.243-0.354l-0.095-0.147c-0.109-0.162-0.075-0.382 0.079-0.503 0.102-0.081 0.202-0.166 0.3-0.253 0.101-0.092 0.244-0.118 0.373-0.073l0.149 0.054c0.123 0.045 0.244 0.091 0.371 0.127 0.892 0.259 1.718 0.679 2.518 1.087 0.273 0.139 0.546 0.278 0.82 0.411 0.057 0.028 0.109 0.057 0.161 0.090-0.59-1.171-1.229-2.199-2.139-2.802-0.117-0.078-0.225-0.166-0.334-0.256l-0.133-0.108c-0.154-0.119-0.189-0.336-0.085-0.498 0.071-0.112 0.141-0.227 0.208-0.343 0.070-0.119 0.203-0.186 0.338-0.187l0.129 0.004c0.135 0.005 0.272 0.011 0.409 0.007 0.931-0.032 1.845 0.116 2.731 0.255 0.304 0.048 0.608 0.097 0.912 0.138 0.062 0.009 0.122 0.020 0.179 0.034-0.923-0.931-1.847-1.71-2.9-2.005-0.146-0.039-0.289-0.096-0.431-0.151l-0.157-0.061c-0.179-0.067-0.281-0.258-0.234-0.445l0.037-0.142c0.021-0.076 0.042-0.153 0.058-0.229 0.029-0.137 0.13-0.245 0.265-0.285l0.127-0.036c0.139-0.038 0.277-0.078 0.415-0.127 0.874-0.315 1.788-0.46 2.672-0.601 0.304-0.048 0.61-0.097 0.912-0.151 0.061-0.011 0.122-0.018 0.182-0.022-1.166-0.601-2.282-1.053-3.38-1.010-0.175 0.006-0.351-0.002-0.529-0.014l-0.161-0.010c-0.189-0.010-0.341-0.158-0.355-0.346-0.010-0.112-0.018-0.224-0.032-0.334-0.017-0.141 0.047-0.278 0.164-0.357 0.222-0.147 0.38-0.252 0.532-0.37 0.736-0.57 1.562-0.991 2.359-1.398 0.274-0.14 0.547-0.278 0.816-0.423 0.054-0.030 0.11-0.055 0.165-0.078-1.295-0.21-2.501-0.298-3.525 0.083-0.204 0.076-0.416 0.13-0.627 0.185l-0.123 0.032c-0.181 0.044-0.367-0.045-0.441-0.217-0.022-0.054-0.048-0.106-0.075-0.158l-0.062-0.126c-0.061-0.13-0.042-0.284 0.048-0.396 0.067-0.082 0.137-0.16 0.207-0.238 0.095-0.105 0.189-0.207 0.269-0.325 0.526-0.772 1.183-1.429 1.818-2.064 0.215-0.215 0.431-0.431 0.641-0.651 0.043-0.045 0.087-0.086 0.133-0.125-1.296 0.199-2.47 0.489-3.326 1.168-0.237 0.188-0.496 0.351-0.756 0.511-0.159 0.094-0.359 0.065-0.481-0.073l-0.127-0.14c-0.099-0.107-0.128-0.261-0.075-0.397 0.109-0.271 0.207-0.548 0.29-0.834 0.259-0.894 0.679-1.721 1.087-2.519 0.139-0.273 0.278-0.546 0.411-0.821 0.028-0.055 0.057-0.109 0.090-0.16-1.171 0.59-2.198 1.229-2.802 2.139-0.171 0.257-0.374 0.516-0.64 0.819-0.118 0.135-0.316 0.167-0.473 0.076-0.125-0.073-0.308-0.279-0.297-0.423 0.028-0.331 0.038-0.665 0.029-1.004-0.030-0.93 0.115-1.844 0.255-2.73 0.048-0.304 0.097-0.608 0.138-0.912 0.009-0.062 0.020-0.122 0.034-0.179-0.931 0.923-1.71 1.847-2.005 2.901-0.099 0.359-0.233 0.725-0.396 1.088-0.074 0.162-0.25 0.253-0.421 0.213-0.144-0.031-0.321-0.159-0.354-0.302-0.094-0.416-0.191-0.759-0.305-1.079-0.315-0.875-0.461-1.789-0.601-2.673-0.048-0.304-0.097-0.608-0.151-0.911-0.011-0.061-0.018-0.122-0.022-0.181-0.601 1.166-1.056 2.286-1.010 3.379 0.017 0.39-0.002 0.803-0.057 1.258-0.019 0.161-0.14 0.29-0.298 0.323s-0.32-0.039-0.401-0.18c-0.236-0.409-0.45-0.733-0.674-1.022-0.571-0.736-0.992-1.562-1.399-2.361-0.139-0.273-0.278-0.546-0.422-0.815-0.030-0.055-0.055-0.11-0.078-0.165-0.211 1.294-0.298 2.5 0.083 3.525 0.139 0.373 0.251 0.787 0.341 1.265 0.031 0.159-0.044 0.319-0.186 0.398-0.141 0.080-0.317 0.061-0.436-0.049l-0.142-0.129c-0.272-0.249-0.529-0.483-0.82-0.682-0.767-0.522-1.423-1.178-2.058-1.811-0.217-0.218-0.433-0.433-0.653-0.644-0.045-0.043-0.086-0.087-0.125-0.133 0.198 1.296 0.489 2.47 1.168 3.327 0.243 0.306 0.469 0.65 0.693 1.051 0.079 0.141 0.059 0.318-0.051 0.436-0.108 0.119-0.282 0.156-0.43 0.091-0.431-0.192-0.796-0.327-1.146-0.43-0.895-0.259-1.722-0.681-2.523-1.088-0.272-0.139-0.545-0.277-0.819-0.41-0.057-0.027-0.109-0.057-0.16-0.089 0.59 1.171 1.229 2.198 2.139 2.803 0.329 0.219 0.651 0.476 0.985 0.786 0.118 0.11 0.154 0.284 0.086 0.431s-0.224 0.235-0.382 0.219c-0.465-0.049-0.853-0.067-1.221-0.057-0.93 0.032-1.847-0.116-2.735-0.256-0.302-0.048-0.604-0.096-0.906-0.137-0.062-0.007-0.122-0.020-0.179-0.034 0.923 0.931 1.847 1.711 2.901 2.005 0.377 0.105 0.763 0.25 1.179 0.443 0.147 0.068 0.234 0.223 0.215 0.384s-0.137 0.292-0.294 0.325c-0.463 0.098-0.837 0.202-1.18 0.325-0.877 0.316-1.793 0.461-2.679 0.602-0.302 0.048-0.605 0.096-0.905 0.15-0.061 0.011-0.122 0.018-0.181 0.022 1.165 0.599 2.273 1.054 3.379 1.010 0.39-0.019 0.8 0.001 1.258 0.057 0.161 0.019 0.291 0.139 0.323 0.298s-0.039 0.32-0.18 0.401c-0.407 0.237-0.733 0.451-1.021 0.674-0.735 0.57-1.561 0.991-2.358 1.397-0.274 0.141-0.547 0.281-0.818 0.425-0.054 0.031-0.11 0.055-0.165 0.078 1.294 0.211 2.502 0.298 3.525-0.083 0.367-0.138 0.753-0.244 1.181-0.331 0.187-0.030 0.365 0.067 0.427 0.241 0.047 0.13 0.041 0.334-0.051 0.436l-0.175 0.195c-0.211 0.233-0.411 0.452-0.578 0.7-0.524 0.77-1.18 1.426-1.814 2.061-0.217 0.217-0.433 0.433-0.644 0.654-0.043 0.045-0.089 0.086-0.134 0.125 1.296-0.199 2.471-0.489 3.328-1.169 0.273-0.218 0.575-0.42 0.921-0.621 0.164-0.097 0.375-0.052 0.49 0.099 0.081 0.107 0.155 0.324 0.102 0.448-0.158 0.372-0.274 0.692-0.365 1.006-0.26 0.895-0.682 1.723-1.089 2.523-0.139 0.273-0.277 0.545-0.41 0.819-0.027 0.055-0.057 0.108-0.089 0.16 1.171-0.59 2.198-1.229 2.803-2.139 0.192-0.29 0.413-0.554 0.603-0.773 0.128-0.147 0.348-0.171 0.503-0.059 0.107 0.077 0.302 0.304 0.292 0.434-0.022 0.307-0.029 0.617-0.019 0.93 0.030 0.931-0.115 1.847-0.256 2.736-0.048 0.301-0.096 0.604-0.137 0.906-0.007 0.062-0.020 0.122-0.034 0.179 0.931-0.923 1.711-1.847 2.005-2.9 0.071-0.258 0.172-0.507 0.273-0.756 0.062-0.154 0.225-0.274 0.387-0.274zM26.27 17.983v0z"></path>
<path fill="#ffca00" style="fill: var(--color11, #FF6B09)" d="M13.554 25.034c0.030 0 0.060 0.004 0.089 0.013l0.231 0.059c0.129 0.035 0.23 0.139 0.265 0.269 0.067 0.258 0.141 0.515 0.233 0.77 0.315 0.876 0.46 1.792 0.601 2.677 0.048 0.302 0.096 0.605 0.15 0.906 0.011 0.061 0.018 0.122 0.022 0.182 0.601-1.166 1.056-2.286 1.010-3.38-0.009-0.198 0.003-0.397 0.016-0.597l0.009-0.148c0.011-0.196 0.172-0.352 0.368-0.354 0.084-0.002 0.167-0.007 0.251-0.013 0.138 0.001 0.318 0.053 0.391 0.164 0.132 0.202 0.256 0.389 0.395 0.569 0.569 0.734 0.99 1.558 1.396 2.355 0.14 0.275 0.279 0.548 0.425 0.819 0.031 0.054 0.055 0.11 0.078 0.165 0.211-1.294 0.298-2.5-0.083-3.525-0.057-0.153-0.098-0.31-0.14-0.47l-0.043-0.162c-0.052-0.189 0.049-0.387 0.235-0.453l0.119-0.043c0.086-0.030 0.172-0.059 0.256-0.095 0.124-0.050 0.269-0.033 0.375 0.050 0.074 0.058 0.143 0.119 0.211 0.181 0.074 0.066 0.145 0.132 0.226 0.189 0.772 0.525 1.429 1.182 2.065 1.817 0.215 0.215 0.43 0.431 0.651 0.641 0.045 0.043 0.086 0.089 0.125 0.134-0.199-1.296-0.49-2.471-1.169-3.327-0.089-0.111-0.165-0.233-0.243-0.354l-0.095-0.147c-0.109-0.162-0.075-0.382 0.079-0.503 0.102-0.081 0.202-0.166 0.3-0.253 0.101-0.092 0.244-0.118 0.373-0.073l0.149 0.054c0.123 0.045 0.244 0.091 0.371 0.127 0.892 0.259 1.718 0.679 2.518 1.087 0.273 0.139 0.546 0.278 0.82 0.411 0.057 0.028 0.109 0.057 0.161 0.090-0.59-1.171-1.229-2.199-2.139-2.802-0.117-0.078-0.225-0.166-0.334-0.256l-0.133-0.108c-0.154-0.119-0.189-0.336-0.085-0.498 0.071-0.112 0.141-0.227 0.208-0.343 0.070-0.119 0.203-0.186 0.338-0.187l0.129 0.004c0.135 0.005 0.272 0.011 0.409 0.007 0.931-0.032 1.845 0.116 2.731 0.255 0.304 0.048 0.608 0.097 0.912 0.138 0.062 0.009 0.122 0.020 0.179 0.034-0.923-0.931-1.847-1.71-2.9-2.005-0.146-0.039-0.289-0.096-0.431-0.151l-0.157-0.061c-0.179-0.067-0.281-0.258-0.234-0.445l0.037-0.142c0.021-0.076 0.042-0.153 0.058-0.229 0.029-0.137 0.13-0.245 0.265-0.285l0.127-0.036c0.139-0.038 0.277-0.078 0.415-0.127 0.874-0.315 1.788-0.46 2.672-0.601 0.304-0.048 0.61-0.097 0.912-0.151 0.061-0.011 0.122-0.018 0.182-0.022-1.166-0.601-2.282-1.053-3.38-1.010-0.175 0.006-0.351-0.002-0.529-0.014l-0.161-0.010c-0.189-0.010-0.341-0.158-0.355-0.346-0.010-0.112-0.018-0.224-0.032-0.334-0.017-0.141 0.047-0.278 0.164-0.357 0.222-0.147 0.38-0.252 0.532-0.37 0.736-0.57 1.562-0.991 2.359-1.398 0.274-0.14 0.547-0.278 0.816-0.423 0.054-0.030 0.11-0.055 0.165-0.078-1.295-0.21-2.501-0.298-3.525 0.083-0.204 0.076-0.416 0.13-0.627 0.185l-0.123 0.032c-0.181 0.044-0.367-0.045-0.441-0.217-0.022-0.054-0.048-0.106-0.075-0.158l-0.062-0.126c-0.061-0.13-0.042-0.284 0.048-0.396 0.067-0.082 0.137-0.16 0.207-0.238 0.095-0.105 0.189-0.207 0.269-0.325 0.526-0.772 1.183-1.429 1.818-2.064 0.215-0.215 0.431-0.431 0.641-0.651 0.043-0.045 0.087-0.086 0.133-0.125-1.296 0.199-2.47 0.489-3.326 1.168-0.237 0.188-0.496 0.351-0.756 0.511-0.159 0.094-0.359 0.065-0.481-0.073l-0.127-0.14c-0.099-0.107-0.128-0.261-0.075-0.397 0.109-0.271 0.207-0.548 0.29-0.834 0.259-0.894 0.679-1.721 1.087-2.519 0.139-0.273 0.278-0.546 0.411-0.821 0.028-0.055 0.057-0.109 0.090-0.16-1.171 0.59-2.198 1.229-2.802 2.139-0.171 0.257-0.374 0.516-0.64 0.819-0.118 0.135-0.316 0.167-0.473 0.076-0.125-0.073-0.308-0.279-0.297-0.423 0.028-0.331 0.038-0.665 0.029-1.004-0.030-0.93 0.115-1.844 0.255-2.73 0.048-0.304 0.097-0.608 0.138-0.912 0.009-0.062 0.020-0.122 0.034-0.179-0.931 0.923-1.71 1.847-2.005 2.901-0.099 0.359-0.233 0.725-0.396 1.088-0.074 0.162-0.25 0.253-0.421 0.213-0.144-0.031-0.321-0.159-0.354-0.302-0.094-0.416-0.191-0.759-0.305-1.079-0.315-0.875-0.461-1.789-0.601-2.673-0.048-0.304-0.097-0.608-0.151-0.911-0.011-0.061-0.018-0.122-0.022-0.181-0.601 1.166-1.056 2.286-1.010 3.379 0.017 0.39-0.002 0.803-0.057 1.258-0.019 0.161-0.14 0.29-0.298 0.323s-0.32-0.039-0.401-0.18c-0.236-0.409-0.45-0.733-0.674-1.022-0.571-0.736-0.992-1.562-1.399-2.361-0.139-0.273-0.278-0.546-0.422-0.815-0.030-0.055-0.055-0.11-0.078-0.165-0.211 1.294-0.298 2.5 0.083 3.525 0.139 0.373 0.251 0.787 0.341 1.265 0.031 0.159-0.044 0.319-0.186 0.398-0.141 0.080-0.317 0.061-0.436-0.049l-0.142-0.129c-0.272-0.249-0.529-0.483-0.82-0.682-0.767-0.522-1.423-1.178-2.058-1.812-0.217-0.217-0.433-0.432-0.653-0.643-0.046-0.043-0.087-0.087-0.126-0.134 0.199 1.296 0.49 2.471 1.169 3.328 0.243 0.306 0.469 0.65 0.693 1.051 0.079 0.141 0.059 0.318-0.051 0.436-0.108 0.119-0.282 0.156-0.43 0.091-0.431-0.192-0.796-0.327-1.146-0.43-0.895-0.26-1.722-0.681-2.523-1.089-0.272-0.139-0.545-0.277-0.819-0.41-0.057-0.027-0.109-0.057-0.16-0.089 0.59 1.171 1.229 2.198 2.139 2.803 0.329 0.219 0.651 0.476 0.985 0.786 0.118 0.11 0.154 0.284 0.086 0.431s-0.224 0.235-0.382 0.219c-0.467-0.048-0.854-0.066-1.222-0.055-0.93 0.032-1.847-0.116-2.735-0.256-0.302-0.048-0.604-0.096-0.906-0.137-0.062-0.007-0.122-0.020-0.179-0.034 0.923 0.931 1.847 1.711 2.901 2.005 0.377 0.105 0.763 0.25 1.179 0.443 0.147 0.068 0.234 0.223 0.215 0.384s-0.137 0.292-0.294 0.325c-0.463 0.098-0.837 0.202-1.18 0.325-0.877 0.316-1.793 0.461-2.679 0.602-0.302 0.048-0.605 0.096-0.905 0.15-0.061 0.011-0.122 0.018-0.181 0.022 1.165 0.599 2.273 1.054 3.379 1.010 0.39-0.019 0.8 0.001 1.258 0.057 0.161 0.019 0.291 0.139 0.323 0.298s-0.039 0.32-0.18 0.401c-0.407 0.237-0.733 0.451-1.021 0.674-0.735 0.57-1.561 0.991-2.358 1.397-0.274 0.141-0.547 0.281-0.818 0.425-0.054 0.031-0.11 0.055-0.165 0.078 1.294 0.211 2.502 0.298 3.525-0.083 0.367-0.138 0.753-0.244 1.181-0.331 0.187-0.030 0.365 0.067 0.427 0.241 0.047 0.13 0.041 0.334-0.051 0.436l-0.175 0.195c-0.211 0.233-0.411 0.452-0.578 0.7-0.524 0.77-1.18 1.426-1.814 2.061-0.215 0.217-0.432 0.433-0.643 0.654-0.043 0.045-0.089 0.086-0.134 0.125 1.296-0.199 2.471-0.489 3.328-1.169 0.273-0.218 0.575-0.42 0.921-0.621 0.164-0.097 0.375-0.052 0.49 0.099 0.081 0.107 0.155 0.324 0.102 0.448-0.158 0.372-0.274 0.692-0.365 1.006-0.26 0.895-0.682 1.723-1.089 2.523-0.139 0.273-0.277 0.545-0.41 0.819-0.027 0.055-0.057 0.108-0.089 0.16 1.171-0.59 2.198-1.229 2.803-2.139 0.192-0.29 0.413-0.554 0.603-0.773 0.128-0.147 0.348-0.171 0.503-0.059 0.107 0.077 0.302 0.304 0.292 0.434-0.022 0.307-0.029 0.617-0.019 0.93 0.030 0.931-0.115 1.847-0.256 2.736-0.048 0.301-0.096 0.604-0.137 0.906-0.007 0.062-0.020 0.122-0.034 0.179 0.931-0.923 1.711-1.847 2.005-2.9 0.071-0.258 0.172-0.507 0.273-0.756 0.062-0.154 0.225-0.274 0.387-0.274z"></path>
<path fill="#f9e52f" style="fill: var(--color12, #f9e52f)" opacity="0.53" d="M23.777 16.001c0 4.295-3.482 7.777-7.777 7.777s-7.777-3.482-7.777-7.777c0-4.295 3.482-7.777 7.777-7.777s7.777 3.482 7.777 7.777z"></path>
<path fill="#f5a800" style="fill: var(--color13, #FF6B09)" opacity="0.61" d="M22.447 16.001c0 3.561-2.886 6.447-6.447 6.447s-6.447-2.886-6.447-6.447c0-3.561 2.886-6.447 6.447-6.447s6.447 2.886 6.447 6.447z"></path>
<path fill="#000" style="fill: var(--color10, #000)" d="M15.999 24.624c-4.755 0-8.623-3.869-8.623-8.624s3.868-8.623 8.623-8.623c4.755 0 8.624 3.868 8.624 8.623s-3.869 8.624-8.624 8.624zM15.999 8.237c-4.282 0-7.763 3.483-7.763 7.763s3.483 7.763 7.763 7.763 7.763-3.483 7.763-7.763-3.482-7.763-7.763-7.763z"></path>
<path fill="#000" style="fill: var(--color10, #000)" d="M22.31 16.203c-0.208 0-0.375-0.169-0.375-0.377 0-3.221-2.621-5.842-5.843-5.842-0.208 0-0.377-0.169-0.377-0.377s0.169-0.377 0.377-0.377c3.636 0 6.594 2.959 6.594 6.595 0 0.208-0.169 0.377-0.375 0.377z"></path>
<path fill="#fbe68f" style="fill: var(--color14, #fbe68f)" opacity="0.63" d="M18.712 12.919c0.358 1.548-1.138 3.215-3.341 3.724s-4.279-0.333-4.636-1.881c-0.358-1.548 1.138-3.215 3.341-3.724s4.279 0.333 4.636 1.881z"></path>
</symbol>
</defs>
</svg>
