<svg aria-hidden="true" style="position: absolute; width: 0; height: 0; overflow: hidden;" version="1.1" xmlns="http://www.w3.org/2000/svg" xmlns:xlink="http://www.w3.org/1999/xlink">
<defs>
<symbol id="icon-film-header" viewBox="0 0 32 32">
<path fill="none" stroke="#818181" style="stroke: var(--color1, #818181)" stroke-linejoin="round" stroke-linecap="round" stroke-miterlimit="4" stroke-width="2.6667" d="M26.427 2.667h-20.853c-1.605 0-2.907 1.301-2.907 2.907v20.853c0 1.605 1.301 2.907 2.907 2.907h20.853c1.605 0 2.907-1.301 2.907-2.907v-20.853c0-1.605-1.301-2.907-2.907-2.907z"></path>
<path fill="none" stroke="#818181" style="stroke: var(--color1, #818181)" stroke-linejoin="round" stroke-linecap="round" stroke-miterlimit="4" stroke-width="2.6667" d="M9.333 2.667v26.667"></path>
<path fill="none" stroke="#818181" style="stroke: var(--color1, #818181)" stroke-linejoin="round" stroke-linecap="round" stroke-miterlimit="4" stroke-width="2.6667" d="M22.667 2.667v26.667"></path>
<path fill="none" stroke="#818181" style="stroke: var(--color1, #818181)" stroke-linejoin="round" stroke-linecap="round" stroke-miterlimit="4" stroke-width="2.6667" d="M2.667 16h26.667"></path>
<path fill="none" stroke="#818181" style="stroke: var(--color1, #818181)" stroke-linejoin="round" stroke-linecap="round" stroke-miterlimit="4" stroke-width="2.6667" d="M2.667 9.333h6.667"></path>
<path fill="none" stroke="#818181" style="stroke: var(--color1, #818181)" stroke-linejoin="round" stroke-linecap="round" stroke-miterlimit="4" stroke-width="2.6667" d="M2.667 22.667h6.667"></path>
<path fill="none" stroke="#818181" style="stroke: var(--color1, #818181)" stroke-linejoin="round" stroke-linecap="round" stroke-miterlimit="4" stroke-width="2.6667" d="M22.667 22.667h6.667"></path>
<path fill="none" stroke="#818181" style="stroke: var(--color1, #818181)" stroke-linejoin="round" stroke-linecap="round" stroke-miterlimit="4" stroke-width="2.6667" d="M22.667 9.333h6.667"></path>
</symbol>
<symbol id="icon-search-header" viewBox="0 0 32 32">
<path fill="none" stroke="#fff" style="stroke: var(--color2, #fff)" stroke-linejoin="round" stroke-linecap="round" stroke-miterlimit="4" stroke-width="2.6667" d="M14.667 25.333c5.891 0 10.667-4.776 10.667-10.667s-4.776-10.667-10.667-10.667c-5.891 0-10.667 4.776-10.667 10.667s4.776 10.667 10.667 10.667z"></path>
<path fill="none" stroke="#fff" style="stroke: var(--color2, #fff)" stroke-linejoin="round" stroke-linecap="round" stroke-miterlimit="4" stroke-width="2.6667" d="M28 28l-5.8-5.8"></path>
</symbol>
<symbol id="close" viewBox="0 0 32 32">
<path d="M21.28 16.001l9.9-9.9c1.094-1.094 1.094-2.867 0-3.959l-1.32-1.32c-1.094-1.094-2.867-1.094-3.96 0l-9.899 9.899-9.9-9.901c-1.094-1.094-2.867-1.094-3.959 0l-1.322 1.32c-1.094 1.094-1.094 2.867 0 3.96l9.901 9.901-9.899 9.899c-1.094 1.094-1.094 2.867 0 3.96l1.32 1.32c1.094 1.094 2.867 1.094 3.959 0l9.9-9.9 9.899 9.9c1.094 1.094 2.867 1.094 3.96 0l1.32-1.32c1.094-1.094 1.094-2.867 0-3.96z"></path>
</symbol>
<symbol widht="20px" height="20px" id="popcorn" viewBox="0 0 32 32">
<path fill="#fdb62f" style="fill: var(--color1, #fdb62f)" d="M28.522 9.413c-0.084-0.481-0.381-0.899-0.809-1.136-0.395-0.243-0.881-0.287-1.313-0.118 0-0.034 0.010-0.067 0.010-0.101 0.008-0.874-0.695-1.589-1.57-1.597-0.195-0.002-0.388 0.033-0.57 0.101 0-0.034 0.010-0.067 0.010-0.101 0-0.882-0.715-1.597-1.597-1.597 0-0.882-0.715-1.597-1.597-1.597-0.035 0-0.067 0.008-0.101 0.010 0.143-0.365 0.134-0.772-0.026-1.131-0.229-0.551-0.738-0.935-1.331-1.003-0.491-0.042-0.973 0.146-1.305 0.509-0.299-0.828-1.213-1.257-2.041-0.958-0.635 0.229-1.056 0.833-1.053 1.508 0.001-0.881-0.711-1.596-1.592-1.597-0.549-0.001-1.060 0.281-1.352 0.745-0.348-0.204-0.762-0.264-1.153-0.168-0.611 0.151-1.079 0.642-1.2 1.26-0.090 0.493 0.058 0.999 0.399 1.366-0.506 0.033-0.966 0.306-1.238 0.734-0.394-0.231-0.869-0.277-1.3-0.125-0.459 0.159-0.822 0.517-0.987 0.974-0.134 0.367-0.126 0.771 0.021 1.132-0.696 0.186-1.18 0.815-1.182 1.535 0 0.035 0.008 0.067 0.010 0.101-0.431-0.168-0.916-0.125-1.31 0.117-0.429 0.237-0.727 0.655-0.811 1.137-0.097 0.637 0.2 1.27 0.752 1.602l0.295 0.237h1.863v2.084h18.633v-2.085h2.396l-0.075-0.075c0.762-0.225 1.241-0.979 1.122-1.765z"></path>
<path fill="#de0418" style="fill: var(--color2, #de0418)" d="M8.043 31.439l-4.623-18.258c-0.308-1.334 0.524-2.666 1.858-2.974 0.183-0.042 0.37-0.064 0.558-0.064h0.023c1.248-0 2.302 0.927 2.46 2.165l2.917 19.131h-3.194z"></path>
<path fill="#fce9cc" style="fill: var(--color3, #fce9cc)" d="M11.237 31.439l-2.836-18.5c-0.174-1.358 0.786-2.601 2.144-2.775 0.105-0.013 0.21-0.020 0.316-0.020h0.088c1.345-0 2.445 1.072 2.479 2.416l1.002 18.879h-3.194z"></path>
<path fill="#de0418" style="fill: var(--color2, #de0418)" d="M13.432 12.687l0.999 18.752h3.194l0.931-18.687c0.071-1.368-0.98-2.534-2.348-2.605-0.042-0.002-0.085-0.003-0.127-0.003h-0.169c-1.37-0.001-2.481 1.108-2.482 2.478 0 0.022 0 0.044 0.001 0.066v0z"></path>
<path fill="#fce9cc" style="fill: var(--color3, #fce9cc)" d="M18.57 12.497l-0.944 18.942h3.194l2.755-18.438c0.209-1.354-0.72-2.62-2.073-2.828-0.125-0.019-0.251-0.029-0.378-0.029h-0.077c-1.32-0-2.409 1.034-2.477 2.353z"></path>
<path fill="#de0418" style="fill: var(--color2, #de0418)" d="M26.144 10.144c1.37 0 2.48 1.11 2.48 2.48 0 0.208-0.026 0.415-0.078 0.616l-4.532 18.2h-3.194l2.871-19.192c0.186-1.211 1.228-2.104 2.453-2.103z"></path>
<path fill="#fdb62f" style="fill: var(--color1, #fdb62f)" d="M9.108 18.129h13.842v6.389h-13.842v-6.389z"></path>
<path fill="#fdb62f" style="fill: var(--color1, #fdb62f)" d="M5.381 2.158c0.003-0.879-0.706-1.595-1.586-1.598-0.59-0.002-1.132 0.322-1.41 0.842-0.066-0.011-0.132-0.017-0.199-0.020-0.882 0-1.597 0.715-1.597 1.597s0.715 1.597 1.597 1.597c0.074-0.002 0.148-0.010 0.221-0.022 0.433 0.765 1.403 1.034 2.168 0.601s1.034-1.403 0.601-2.168c-0.006-0.010-0.012-0.020-0.018-0.030 0.144-0.242 0.22-0.517 0.221-0.799z"></path>
<path fill="#fdb62f" style="fill: var(--color1, #fdb62f)" d="M31.468 3.223c0.003-0.879-0.706-1.595-1.586-1.598-0.59-0.002-1.132 0.322-1.41 0.842-0.066-0.011-0.132-0.017-0.199-0.020-0.882 0-1.597 0.715-1.597 1.597s0.715 1.597 1.597 1.597c0.074-0.002 0.148-0.010 0.221-0.022 0.433 0.765 1.403 1.034 2.168 0.601s1.034-1.403 0.601-2.168c-0.006-0.010-0.012-0.020-0.018-0.030 0.144-0.242 0.22-0.517 0.221-0.799z"></path>
<path fill="#000" style="fill: var(--color4, #000)" d="M29.048 9.335c-0.108-0.642-0.501-1.201-1.070-1.519-0.334-0.197-0.716-0.297-1.104-0.289-0.256-0.96-1.136-1.62-2.13-1.597-0.2-0.769-0.81-1.364-1.584-1.544-0.18-0.774-0.775-1.384-1.544-1.584 0.010-0.298-0.048-0.595-0.17-0.868-0.31-0.729-0.989-1.234-1.776-1.32-0.414-0.036-0.83 0.052-1.195 0.251-0.734-0.913-2.069-1.057-2.981-0.323-0.096 0.077-0.185 0.163-0.266 0.255-0.773-0.881-2.115-0.969-2.996-0.196-0.037 0.033-0.073 0.067-0.108 0.102-0.362-0.115-0.749-0.128-1.118-0.036-0.814 0.202-1.438 0.859-1.597 1.683-0.069 0.382-0.033 0.776 0.106 1.138-0.215 0.103-0.41 0.242-0.579 0.41-0.428-0.137-0.89-0.13-1.314 0.020-0.614 0.211-1.099 0.69-1.317 1.301-0.114 0.318-0.151 0.658-0.106 0.993-0.502 0.284-0.869 0.759-1.016 1.317-0.387-0.014-0.77 0.086-1.101 0.287-0.569 0.318-0.964 0.878-1.073 1.521-0.083 0.546 0.051 1.102 0.373 1.55-0.502 0.702-0.676 1.587-0.479 2.427l4.725 18.658h16.802l4.632-18.6c0.215-0.834 0.060-1.721-0.426-2.432 0.351-0.456 0.5-1.036 0.412-1.604v0zM4.612 8.737c0.258-0.164 0.58-0.192 0.864-0.078 0.276 0.1 0.582-0.043 0.682-0.319 0.025-0.068 0.035-0.141 0.031-0.213 0-0.013-0.007-0.053-0.009-0.068 0.003-0.479 0.325-0.898 0.788-1.022 0.284-0.077 0.451-0.369 0.374-0.653-0.005-0.020-0.012-0.040-0.020-0.059-0.099-0.24-0.105-0.51-0.015-0.754 0.111-0.303 0.351-0.54 0.656-0.647 0.287-0.102 0.604-0.071 0.866 0.084 0.247 0.14 0.56 0.062 0.712-0.178 0.18-0.286 0.488-0.468 0.825-0.488 0.293-0.020 0.515-0.274 0.495-0.568-0.008-0.121-0.057-0.235-0.139-0.324-0.229-0.245-0.328-0.584-0.266-0.913 0.082-0.412 0.396-0.739 0.804-0.837 0.26-0.065 0.535-0.024 0.764 0.113 0.247 0.14 0.56 0.062 0.712-0.178 0.317-0.495 0.975-0.64 1.471-0.324 0.304 0.194 0.489 0.529 0.491 0.89 0 0.294 0.238 0.532 0.532 0.532s0.532-0.238 0.532-0.532c-0.001-0.586 0.474-1.062 1.061-1.063 0.447-0 0.846 0.279 0.999 0.699 0.064 0.174 0.214 0.302 0.396 0.338 0.181 0.038 0.369-0.023 0.495-0.16 0.222-0.242 0.543-0.367 0.87-0.341 0.398 0.051 0.738 0.313 0.89 0.686 0.106 0.233 0.111 0.499 0.013 0.736-0.101 0.276 0.042 0.582 0.318 0.682 0.058 0.021 0.12 0.032 0.182 0.032 0.023 0 0.077-0.007 0.101-0.010 0.588 0 1.065 0.477 1.065 1.065 0 0.294 0.238 0.532 0.532 0.532 0.582-0 1.057 0.468 1.065 1.050 0 0.013-0.008 0.070-0.009 0.083-0.018 0.293 0.206 0.546 0.499 0.563 0.073 0.004 0.146-0.006 0.214-0.031 0.115-0.044 0.237-0.067 0.36-0.069 0.582-0 1.057 0.468 1.065 1.050 0 0.013-0.008 0.070-0.009 0.083-0.018 0.293 0.206 0.546 0.5 0.563 0.072 0.004 0.145-0.006 0.213-0.031 0.284-0.114 0.606-0.085 0.866 0.078 0.287 0.155 0.488 0.432 0.547 0.752 0.035 0.23-0.007 0.465-0.119 0.669l-0.013-0.008c-0.11-0.076-0.225-0.145-0.345-0.206-0.029-0.015-0.058-0.028-0.087-0.042-0.114-0.055-0.231-0.102-0.351-0.142-0.011-0.003-0.020-0.008-0.031-0.011-0.13-0.040-0.262-0.071-0.396-0.093-0.032-0.005-0.064-0.010-0.097-0.015-0.137-0.020-0.274-0.031-0.412-0.032-1.007 0.001-1.946 0.506-2.502 1.345l-0.007 0.011-0.006-0.011c-0.557-0.84-1.497-1.346-2.505-1.346h-0.077c-0.995 0.002-1.925 0.497-2.482 1.321-0.558-0.824-1.487-1.319-2.482-1.321h-0.169c-0.994 0-1.923 0.492-2.482 1.313-0.559-0.821-1.488-1.313-2.481-1.313h-0.088c-1.006 0.001-1.945 0.505-2.502 1.344-0.665-1.007-1.87-1.516-3.056-1.29-0.053 0.009-0.102 0.022-0.153 0.035-0.127 0.029-0.251 0.067-0.373 0.112-0.050 0.019-0.1 0.036-0.148 0.057-0.15 0.065-0.295 0.142-0.432 0.231-0.011 0.007-0.023 0.012-0.034 0.019l-0.005 0.003c-0.096-0.195-0.13-0.415-0.096-0.63 0.060-0.322 0.262-0.6 0.55-0.755v0zM23.048 12.923l-0.698 4.674h-3.5l0.253-5.073c0.019-0.349 0.133-0.686 0.33-0.975 0.358-0.543 0.964-0.87 1.614-0.873h0.077c0.652 0 1.261 0.328 1.621 0.871 0.27 0.404 0.378 0.895 0.303 1.375v0zM13.967 12.65c-0.015-1.075 0.843-1.958 1.918-1.973 0.009-0 0.018-0 0.026-0h0.171c0.651 0.001 1.258 0.329 1.617 0.872 0.234 0.346 0.349 0.758 0.328 1.175l-0.245 4.873h-3.553l-0.261-4.918-0.001-0.029zM9.241 11.548c0.36-0.544 0.968-0.871 1.621-0.871h0.088c1.060 0.006 1.922 0.854 1.947 1.913l0.003 0.058v0.021l0.26 4.929h-3.495l-0.745-4.903c-0.016-0.406 0.097-0.808 0.323-1.146l-0.003-0.001zM8.457 30.907l-4.518-17.845c-0.239-1.053 0.421-2.1 1.474-2.338 0.791-0.179 1.611 0.149 2.060 0.825 0.171 0.251 0.28 0.539 0.319 0.84l0.062 0.408c0.004 0.070 0.008 0.139 0.019 0.223l0.702 4.577v7.453h1.144l0.114 0.745 0.784 5.111h-2.16zM11.694 30.907l-0.546-3.579-0.347-2.278h2.756l0.312 5.856h-2.175zM17.119 30.907h-2.183l-0.311-5.856h2.788l-0.294 5.856zM20.361 30.907h-2.176l0.292-5.856h2.759l-0.876 5.856zM18.531 23.986h-8.891v-5.324h12.777v5.324h-3.886zM28.028 13.111l-4.43 17.795h-2.16l0.876-5.856h1.168v-7.453l0.735-5.271c0.167-1.062 1.164-1.788 2.227-1.621s1.788 1.164 1.621 2.227c-0.009 0.060-0.022 0.12-0.037 0.178l0.001 0.001z"></path>
<path fill="#000" style="fill: var(--color4, #000)" d="M5.913 3.755c-0-0.274-0.055-0.545-0.16-0.799 0.105-0.253 0.159-0.525 0.16-0.799 0.003-1.173-0.945-2.126-2.118-2.129-0.658-0.002-1.28 0.302-1.684 0.822-1.176 0.010-2.121 0.971-2.111 2.148s0.972 2.121 2.148 2.111c0.744 0.907 2.082 1.039 2.989 0.295 0.494-0.405 0.779-1.011 0.777-1.65zM2.868 4.287l-0.218-0.304-0.355 0.050c-0.036 0.006-0.073 0.009-0.109 0.010-0.588 0-1.065-0.477-1.065-1.065s0.477-1.065 1.065-1.065c0.044 0.003 0.088 0.008 0.132 0.015l0.361 0.046 0.174-0.319c0.275-0.517 0.917-0.712 1.434-0.437 0.347 0.185 0.563 0.546 0.561 0.939-0.001 0.188-0.052 0.372-0.149 0.532l-0.156 0.266 0.156 0.266c0.097 0.161 0.148 0.345 0.149 0.532 0 0.588-0.477 1.065-1.065 1.065-0.379 0-0.728-0.203-0.916-0.532z"></path>
<path fill="#000" style="fill: var(--color4, #000)" d="M32 3.223c0.003-1.173-0.945-2.126-2.118-2.129-0.658-0.002-1.28 0.302-1.684 0.822-1.176 0.010-2.121 0.972-2.111 2.148s0.972 2.121 2.148 2.111c0.744 0.907 2.082 1.039 2.989 0.295 0.494-0.405 0.779-1.011 0.777-1.65-0-0.274-0.055-0.545-0.16-0.799 0.105-0.253 0.159-0.525 0.16-0.799zM30.786 4.287c0.097 0.161 0.148 0.345 0.149 0.532 0 0.588-0.477 1.065-1.065 1.065-0.379 0-0.728-0.203-0.916-0.532l-0.218-0.304-0.355 0.050c-0.036 0.007-0.073 0.010-0.11 0.012-0.588 0-1.065-0.477-1.065-1.065s0.477-1.065 1.065-1.065c0.044 0.003 0.088 0.008 0.132 0.015l0.361 0.046 0.174-0.319c0.275-0.517 0.917-0.713 1.433-0.438 0.347 0.184 0.563 0.546 0.562 0.939-0.001 0.188-0.052 0.372-0.149 0.532l-0.156 0.266 0.156 0.266z"></path>
</symbol>
</defs>
</svg>
