<svg aria-hidden="true" style="position:absolute;width:0;height:0" xmlns="http://www.w3.org/2000/svg" overflow="hidden"><defs><symbol id="icon-film-header" viewBox="0 0 32 32"><path fill="none" stroke="var(--color1, #818181)" stroke-linejoin="round" stroke-linecap="round" stroke-width="2.667" d="M26.427 2.667H5.574a2.907 2.907 0 00-2.907 2.907v20.853a2.907 2.907 0 002.907 2.907h20.853a2.907 2.907 0 002.907-2.907V5.574a2.907 2.907 0 00-2.907-2.907zm-17.094 0v26.667M22.667 2.667v26.667M2.667 16h26.667M2.667 9.333h6.667M2.667 22.667h6.667m13.333 0h6.667M22.667 9.333h6.667"/></symbol><symbol id="icon-search-header" viewBox="0 0 32 32"><path fill="none" stroke="var(--color2, #fff)" stroke-linejoin="round" stroke-linecap="round" stroke-width="2.667" d="M14.667 25.333c5.891 0 10.667-4.776 10.667-10.667S20.558 3.999 14.667 3.999 4 8.775 4 14.666s4.776 10.667 10.667 10.667zM28 28l-5.8-5.8"/></symbol><symbol id="close" viewBox="0 0 32 32"><path d="M21.28 16.001l9.9-9.9a2.798 2.798 0 000-3.959L29.86.822a2.8 2.8 0 00-3.96 0l-9.899 9.899L6.101.82a2.798 2.798 0 00-3.959 0L.82 2.14a2.8 2.8 0 000 3.96l9.901 9.901L.822 25.9a2.8 2.8 0 000 3.96l1.32 1.32a2.798 2.798 0 003.959 0l9.9-9.9 9.899 9.9a2.8 2.8 0 003.96 0l1.32-1.32a2.8 2.8 0 000-3.96z"/></symbol><symbol id="popcorn" viewBox="0 0 32 32"><path fill="var(--color1, #fdb62f)" d="M28.522 9.413a1.616 1.616 0 00-.809-1.136 1.478 1.478 0 00-1.313-.118c0-.034.01-.067.01-.101a1.584 1.584 0 00-2.14-1.496c0-.034.01-.067.01-.101 0-.882-.715-1.597-1.597-1.597 0-.882-.715-1.597-1.597-1.597-.035 0-.067.008-.101.01a1.465 1.465 0 00-.026-1.131 1.644 1.644 0 00-1.331-1.003 1.585 1.585 0 00-1.305.509 1.594 1.594 0 00-3.094.55 1.594 1.594 0 00-2.944-.852 1.55 1.55 0 00-1.153-.168 1.618 1.618 0 00-1.2 1.26c-.09.493.058.999.399 1.366a1.59 1.59 0 00-1.238.734 1.55 1.55 0 00-1.3-.125 1.61 1.61 0 00-.987.974c-.134.367-.126.771.021 1.132a1.593 1.593 0 00-1.182 1.535c0 .035.008.067.01.101a1.478 1.478 0 00-1.31.117 1.616 1.616 0 00-.811 1.137c-.097.637.2 1.27.752 1.602l.295.237h1.863v2.084h18.633v-2.085h2.396l-.075-.075a1.592 1.592 0 001.122-1.765z"/><path fill="var(--color2, #de0418)" d="M8.043 31.439L3.42 13.181a2.48 2.48 0 012.416-3.038h.023a2.48 2.48 0 012.46 2.165l2.917 19.131H8.042z"/><path fill="var(--color3, #fce9cc)" d="M11.237 31.439l-2.836-18.5a2.48 2.48 0 012.46-2.795h.088a2.48 2.48 0 012.479 2.416l1.002 18.879h-3.194z"/><path fill="var(--color2, #de0418)" d="M13.432 12.687l.999 18.752h3.194l.931-18.687a2.48 2.48 0 00-2.475-2.608h-.169a2.48 2.48 0 00-2.481 2.544z"/><path fill="var(--color3, #fce9cc)" d="M18.57 12.497l-.944 18.942h3.194l2.755-18.438a2.479 2.479 0 00-2.451-2.857h-.077a2.48 2.48 0 00-2.477 2.353z"/><path fill="var(--color2, #de0418)" d="M26.144 10.144a2.48 2.48 0 012.402 3.096l-4.532 18.2H20.82l2.871-19.192a2.48 2.48 0 012.453-2.103z"/><path fill="var(--color1, #fdb62f)" d="M9.108 18.129H22.95v6.389H9.108v-6.389zM5.381 2.158a1.592 1.592 0 00-2.996-.756 1.656 1.656 0 00-.199-.02 1.597 1.597 0 100 3.194c.074-.002.148-.01.221-.022a1.59 1.59 0 102.769-1.567l-.018-.03a1.57 1.57 0 00.221-.799zm26.087 1.065a1.592 1.592 0 00-2.996-.756 1.656 1.656 0 00-.199-.02 1.597 1.597 0 100 3.194c.074-.002.148-.01.221-.022a1.59 1.59 0 102.769-1.567l-.018-.03a1.57 1.57 0 00.221-.799z"/><path fill="var(--color4, #000)" d="M29.048 9.335a2.148 2.148 0 00-1.07-1.519 2.088 2.088 0 00-1.104-.289 2.152 2.152 0 00-2.13-1.597 2.137 2.137 0 00-1.584-1.544 2.137 2.137 0 00-1.544-1.584 1.966 1.966 0 00-.17-.868A2.189 2.189 0 0019.67.614a2.115 2.115 0 00-1.195.251 2.12 2.12 0 00-3.247-.068 2.124 2.124 0 00-3.104-.094 2.053 2.053 0 00-1.118-.036A2.156 2.156 0 009.409 2.35c-.069.382-.033.776.106 1.138-.215.103-.41.242-.579.41a2.06 2.06 0 00-1.314.02 2.135 2.135 0 00-1.423 2.294 2.14 2.14 0 00-1.016 1.317 1.984 1.984 0 00-1.101.287 2.156 2.156 0 00-1.073 1.521 2.111 2.111 0 00.373 1.55 2.997 2.997 0 00-.479 2.427l4.725 18.658H24.43l4.632-18.6a2.989 2.989 0 00-.426-2.432c.351-.456.5-1.036.412-1.604zM4.612 8.737a.95.95 0 01.864-.078.533.533 0 00.713-.532c0-.013-.007-.053-.009-.068.003-.479.325-.898.788-1.022a.532.532 0 00.354-.712 1.038 1.038 0 01-.015-.754c.111-.303.351-.54.656-.647.287-.102.604-.071.866.084.247.14.56.062.712-.178a1.05 1.05 0 01.825-.488.533.533 0 00.356-.892 1.052 1.052 0 01-.266-.913c.082-.412.396-.739.804-.837.26-.065.535-.024.764.113.247.14.56.062.712-.178a1.066 1.066 0 011.962.566.532.532 0 101.064 0 1.062 1.062 0 012.06-.364.532.532 0 00.891.178c.222-.242.543-.367.87-.341.398.051.738.313.89.686a.923.923 0 01.013.736.532.532 0 00.5.714c.023 0 .077-.007.101-.01.588 0 1.065.477 1.065 1.065 0 .294.238.532.532.532.582 0 1.057.468 1.065 1.05 0 .013-.008.07-.009.083a.532.532 0 00.713.532c.115-.044.237-.067.36-.069.582 0 1.057.468 1.065 1.05 0 .013-.008.07-.009.083a.532.532 0 00.713.532.959.959 0 01.866.078c.287.155.488.432.547.752.035.23-.007.465-.119.669l-.013-.008a2.992 2.992 0 00-.345-.206l-.087-.042a2.961 2.961 0 00-.351-.142l-.031-.011a2.995 2.995 0 00-.396-.093l-.097-.015a2.996 2.996 0 00-.412-.032 3.005 3.005 0 00-2.502 1.345l-.007.011-.006-.011a3.006 3.006 0 00-2.505-1.346h-.077a3.004 3.004 0 00-2.482 1.321 3.005 3.005 0 00-2.482-1.321h-.169c-.994 0-1.923.492-2.482 1.313a3.002 3.002 0 00-2.481-1.313h-.088a3.006 3.006 0 00-2.502 1.344 2.991 2.991 0 00-3.056-1.29c-.053.009-.102.022-.153.035a3.02 3.02 0 00-.373.112c-.05.019-.1.036-.148.057-.15.065-.295.142-.432.231l-.034.019-.005.003a1.054 1.054 0 01-.096-.63c.06-.322.262-.6.55-.755zm18.436 4.186l-.698 4.674h-3.5l.253-5.073c.019-.349.133-.686.33-.975.358-.543.964-.87 1.614-.873h.077a1.946 1.946 0 011.924 2.246zm-9.081-.273a1.945 1.945 0 011.918-1.973h.197a1.943 1.943 0 011.617.872c.234.346.349.758.328 1.175l-.245 4.873h-3.553l-.261-4.918-.001-.029zm-4.726-1.102c.36-.544.968-.871 1.621-.871h.088a1.959 1.959 0 011.947 1.913l.003.058v.021l.26 4.929H9.665l-.745-4.903a1.927 1.927 0 01.323-1.146l-.003-.001zm-.784 19.359L3.939 13.062a1.953 1.953 0 013.534-1.513c.171.251.28.539.319.84l.062.408c.004.07.008.139.019.223l.702 4.577v7.453h1.144l.114.745.784 5.111h-2.16zm3.237 0l-.546-3.579-.347-2.278h2.756l.312 5.856h-2.175zm5.425 0h-2.183l-.311-5.856h2.788l-.294 5.856zm3.242 0h-2.176l.292-5.856h2.759l-.876 5.856zm-1.83-6.921H9.64v-5.324h12.777v5.324h-3.886zm9.497-10.875l-4.43 17.795h-2.16l.876-5.856h1.168v-7.453l.735-5.271a1.948 1.948 0 113.811.784l.001.001zM5.913 3.755a2.09 2.09 0 00-.16-.799A2.123 2.123 0 002.111.85a2.13 2.13 0 10.037 4.259 2.124 2.124 0 003.766-1.355zm-3.045.532l-.218-.304-.355.05a.803.803 0 01-.109.01 1.065 1.065 0 010-2.13c.044.003.088.008.132.015l.361.046.174-.319a1.06 1.06 0 011.995.502 1.036 1.036 0 01-.149.532l-.156.266.156.266c.097.161.148.345.149.532 0 .588-.477 1.065-1.065 1.065-.379 0-.728-.203-.916-.532zM32 3.223a2.123 2.123 0 00-3.802-1.307 2.13 2.13 0 00.037 4.259 2.124 2.124 0 003.606-2.154c.105-.253.159-.525.16-.799zm-1.214 1.064c.097.161.148.345.149.532 0 .588-.477 1.065-1.065 1.065-.379 0-.728-.203-.916-.532l-.218-.304-.355.05a.805.805 0 01-.11.012 1.065 1.065 0 010-2.13c.044.003.088.008.132.015l.361.046.174-.319a1.06 1.06 0 011.995.501 1.036 1.036 0 01-.149.532l-.156.266.156.266z"/></symbol></defs></svg>