<svg aria-hidden="true" style="position:absolute;width:0;height:0" xmlns="http://www.w3.org/2000/svg" overflow="hidden"><defs><symbol id="icon-moon-icon" viewBox="0 0 32 32"><path fill="var(--color1, black)" d="M29.875 15.875c0 7.732-6.268 14-14 14s-14-6.268-14-14 6.268-14 14-14 14 6.268 14 14z"/><path fill="var(--color2, #FF6B09)" d="M29.875 15.875c0 7.732-6.268 14-14 14s-14-6.268-14-14 6.268-14 14-14 14 6.268 14 14z"/><path fill="var(--color3, #FF6B09)" d="M29.365 19.63c-1.699 5.955-7.092 10.242-13.486 10.242-7.732 0-14-6.268-14-14 0-5.98 3.749-11.084 9.025-13.09L11 2.75a13.699 13.699 0 00-.514 3.759c0 7.732 6.268 14 14 14 1.748 0 3.422-.321 4.965-.906l-.096.032z"/><path fill="var(--color4, #FF6B09)" d="M17.515 5.723c.939.786 1.201 2.019.586 2.754s-1.875.693-2.814-.093c-.939-.786-1.201-2.019-.586-2.754s1.875-.693 2.814.093zm-2.844 17.66c1.491.578 2.332 1.993 1.879 3.161s-2.028 1.645-3.519 1.067c-1.491-.578-2.332-1.993-1.879-3.161s2.028-1.645 3.519-1.067zm.729-7.932c.816.683 1.045 1.755.51 2.393s-1.629.602-2.446-.082c-.816-.683-1.045-1.755-.51-2.393s1.629-.602 2.446.082zm-7.782 2.188c.328 1.013-.047 2.042-.839 2.299s-1.7-.356-2.029-1.368c-.328-1.013.047-2.042.839-2.299s1.7.356 2.029 1.368zm14.874 3.936c.775.251 1.244.946 1.048 1.553s-.984.896-1.759.645c-.775-.251-1.244-.946-1.048-1.553s.984-.896 1.759-.645zm.498-7.778c.694.581.889 1.493.434 2.036s-1.386.512-2.081-.07c-.694-.581-.889-1.493-.434-2.036s1.386-.512 2.081.07zm2.369-5.639c.615.665.691 1.594.171 2.075s-1.44.331-2.055-.334c-.615-.665-.691-1.594-.171-2.075s1.44-.331 2.055.334z"/><path fill="var(--color5, #FF6B09)" d="M13 13.77v-.02l.25-4.25L15 10.75h2l1.75-1.25.25 4.275a6.757 6.757 0 003.488-4.135l.012-.048c2.525-1.22 5.733-1.5 8.5-1.25-2.5.425-2.902 3.725-.433 4.577-3.317-.385-5.515 3.195-3.418 5.652-3.233-.16-5.808 2.6-5.06 5.615-4.06-4.017-6.09 1.563-6.09 1.563s-1.098-3.017-3.295-3.017c-.79 0-1.72.39-2.795 1.455.75-3.015-1.828-5.775-5.06-5.615 2.098-2.457-.088-6.037-3.417-5.668 2.47-.852 2.067-4.155-.433-4.578 2.772-.227 5.98.043 8.5 1.25a6.764 6.764 0 003.461 4.175l.039.018z"/><path fill="var(--color6, black)" d="M13 13.77v-.02l.25-4.25L15 10.75h2l1.75-1.25.25 4.275a6.757 6.757 0 003.488-4.135l.012-.048c2.525-1.22 5.733-1.5 8.5-1.25-2.5.425-2.902 3.725-.433 4.577-3.317-.385-5.515 3.195-3.418 5.652-3.233-.16-5.808 2.6-5.06 5.615-4.06-4.017-6.09 1.563-6.09 1.563s-1.098-3.017-3.295-3.017c-.79 0-1.72.39-2.795 1.455.75-3.015-1.828-5.775-5.06-5.615 2.098-2.457-.088-6.037-3.417-5.668 2.47-.852 2.067-4.155-.433-4.578 2.772-.227 5.98.043 8.5 1.25a6.764 6.764 0 003.461 4.175l.039.018z"/><path fill="var(--color7, black)" d="M9.475 9.578C6.955 8.368 3.75 8.101 1 8.328c2.5.422 2.902 3.725.433 4.578 3.317-.37 5.515 3.21 3.417 5.668 3.232-.16 5.807 2.6 5.06 5.615 2.21-4.053 1.188-10.313-.435-14.61zm13.05 0c2.52-1.207 5.715-1.475 8.475-1.25-2.5.425-2.902 3.725-.433 4.578-3.317-.37-5.515 3.21-3.418 5.668-3.233-.16-5.808 2.6-5.06 5.615-2.21-4.053-1.188-10.313.435-14.61z"/><path fill="var(--color7, black)" d="M5.027 18.35c1.103-.532 4.412-2.643 4.4-8.78-.428.383-2.745 2.307-7.678 3.313 3.05-.117 5 3.103 3.277 5.467z"/><path fill="var(--color8, black)" d="M1 8.328c2.5.422 2.902 3.725.433 4.578 2.25-.25 6.215-1.713 8-3.345-2.51-1.193-5.683-1.457-8.432-1.232z"/><path fill="var(--color7, black)" d="M26.973 18.35c-1.102-.532-4.412-2.643-4.4-8.78.422.385 2.75 2.31 7.683 3.313-3.055-.117-5.005 3.103-3.282 5.467z"/><path fill="var(--color8, black)" d="M31 8.328c-2.5.425-2.902 3.725-.433 4.578-2.25-.25-6.215-1.713-8-3.345C25.077 8.368 28.25 8.104 31 8.329z"/><path fill="var(--color9, black)" d="M16.53 14.72a.75.75 0 11-1.06 0zm-.78-1.595a.75.75 0 11-.75-.75zm1.25-.75a.75.75 0 11-.75.75z"/><path fill="var(--color9, black)" d="M31.125 9.068a.751.751 0 00-.062-1.488h-.003a22.998 22.998 0 00-3.036-.042l.056-.002c-2.702-3.822-7.104-6.287-12.081-6.287A14.71 14.71 0 005.222 5.928l-.008.008c-.678.725.42 1.75 1.098 1.022a13.218 13.218 0 019.683-4.205c4.166 0 7.884 1.923 10.313 4.93l.02.025a14.315 14.315 0 00-4.245 1.247l.087-.037a.755.755 0 00-.399.495l-.001.005a5.977 5.977 0 01-2.081 3.042l-.014.01c-.175-3.178-.078-3.395-.602-3.647s-.75.05-2.313 1.178h-1.51c-1.578-1.127-1.8-1.422-2.313-1.178s-.438.523-.613 3.648a6.02 6.02 0 01-2.097-3.06l-.011-.042c-.3-.947-4.732-2.16-9.277-1.785a.751.751 0 00-.07 1.487l.004.001c1.71.29 2.07 2.522.313 3.127a.75.75 0 00.25 1.455c-.12.706-.188 1.518-.188 2.347 0 8.146 6.604 14.75 14.75 14.75s14.75-6.604 14.75-14.75c0-.342-.012-.681-.035-1.018l.002.045a.75.75 0 00-.799-.7h.002a.75.75 0 00-.7.799v-.002c.018.261.029.565.029.872 0 7.318-5.932 13.25-13.25 13.25s-13.25-5.932-13.25-13.25c0-.777.067-1.538.195-2.278l-.011.079a2.97 2.97 0 011.675 1.395l.008.015c.195.346.31.76.31 1.2 0 .518-.159.999-.431 1.396l.005-.009a.752.752 0 00-.458.945l-.002-.005a.922.922 0 00.85.587 4.33 4.33 0 013.565 1.523l.005.006a3.508 3.508 0 01.787 2.792l.002-.019c-.088.142-.143.235-.152.25a.75.75 0 00.649 1.125h.003a.998.998 0 00.749-.346l.001-.001c.947-.918 1.807-1.297 2.55-1.135 1.183.25 2.02 1.885 2.25 2.488a.752.752 0 001.408.005l.002-.005c.223-.602 1.058-2.227 2.25-2.5.75-.163 1.605.22 2.555 1.14a.814.814 0 001.398-.788l.002.006c0-.017-.063-.11-.152-.25a3.51 3.51 0 01.799-2.778l-.004.005a4.324 4.324 0 013.582-1.53l-.012-.001h.016c.403 0 .75-.238.908-.581l.003-.006a.75.75 0 00-.472-.946l-.005-.002-.102-.025a2.475 2.475 0 01-.084-2.558l-.006.012a3.074 3.074 0 013.116-1.555l-.016-.002a.75.75 0 00.333-1.453l-.005-.002c-.78-.27-1.21-.875-1.148-1.623a1.67 1.67 0 011.452-1.502l.008-.001zM4.532 12.932c1.263-.4 2.344-.864 3.369-1.418l-.102.05a.75.75 0 10-.715-1.313l.003-.002c-.963.523-2.087.991-3.26 1.342l-.128.033a2.984 2.984 0 00.129-1.181l.001.011a3.096 3.096 0 00-.507-1.451l.007.011c1.635.043 3.61.297 5.402 1.063-.1 3.338-1.25 5.293-2.328 6.4l.001-.093c0-.689-.173-1.339-.477-1.907l.011.022a4.42 4.42 0 00-1.393-1.558l-.015-.01zm16.875 8.83a11.755 11.755 0 00-1.933-1.88l-.027-.02c-.797-.587-1.698.617-.892 1.207.384.292.725.597 1.039.927l.003.003c-1.547-.145-2.75.83-3.598 2.125-.84-1.3-2.05-2.275-3.598-2.125a8.695 8.695 0 011.021-.909l.022-.016c.797-.59-.095-1.797-.893-1.205a11.79 11.79 0 00-1.944 1.879l-.016.021a5.18 5.18 0 00-.984-1.871l.007.009a5.703 5.703 0 00-2.71-1.804l-.04-.011c1.197-1 2.617-2.768 3.155-5.813a7.605 7.605 0 002.592 2.15l.043.02a.748.748 0 00.998-.334l.002-.004c.123-.25.105-.793.25-3.207.675.467.787.595 1.095.595 2.592 0 2.022.155 3.08-.6.172 2.95.04 3.275.59 3.545a.725.725 0 00.482.062l-.005.001c.302-.06 1.78-.832 2.885-2.315.525 3.08 1.945 4.875 3.15 5.878a5.5 5.5 0 00-3.765 3.654l-.01.039zm4.653-7.25a3.996 3.996 0 00-.475 1.871v.002c-1.058-1.13-2.16-3.08-2.25-6.335 1.575-.639 3.4-1.022 5.311-1.05h.011a3.069 3.069 0 00-.499 1.428l-.001.012a3.051 3.051 0 00.128 1.167l-.006-.022a17.769 17.769 0 01-3.376-1.382l.096.047c-.872-.473-1.585.85-.712 1.32.907.494 1.97.949 3.077 1.307l.135.038a4.422 4.422 0 00-1.428 1.562l-.012.023z"/><path fill="var(--color7, black)" d="M17.563 19.75c0 1.243-.7 2.25-1.563 2.25s-1.563-1.007-1.563-2.25.7-2.25 1.563-2.25 1.563 1.007 1.563 2.25z"/></symbol><symbol id="icon-sun-icon" viewBox="0 0 32 32"><path fill="var(--color10, #000)" d="M14.707 31.889a.374.374 0 01-.375-.388l.029-.834c.003-.098.011-.198.019-.298.016-.186.031-.361.004-.507a44.384 44.384 0 01-.154-.923c-.141-.891-.274-1.731-.565-2.542l-.046-.13c-.447 1.6-1.83 2.9-3.168 4.157l-.215.204a.377.377 0 01-.612-.404l.286-.784c.033-.094.071-.186.111-.278.071-.171.14-.334.16-.48.042-.307.091-.614.139-.923.141-.892.274-1.734.247-2.595l-.003-.137c-.919 1.381-2.634 2.189-4.291 2.971L6 28.127a.374.374 0 01-.456-.571l.514-.659c.061-.078.125-.153.19-.227.122-.142.237-.275.301-.409.134-.281.276-.557.417-.834.41-.805.797-1.565 1.038-2.391l.039-.131c-1.303 1.031-3.187 1.269-5.009 1.501l-.291.036a.376.376 0 01-.259-.684l.692-.468c.081-.054.166-.107.252-.159.159-.097.309-.188.412-.294.214-.225.435-.445.655-.666.638-.638 1.241-1.241 1.724-1.953l.08-.113c-1.558.576-3.425.225-5.23-.119l-.288-.054a.375.375 0 01-.035-.731l.716-.206c.183-.053.282-.077.381-.099.18-.042.35-.082.479-.153.275-.148.554-.29.833-.432.802-.41 1.561-.796 2.239-1.322.036-.029.073-.057.11-.084-1.649.075-3.323-.844-4.931-1.727l-.26-.143a.376.376 0 01-.182-.429c.046-.169.19-.314.375-.276l.835.029c.098.003.198.011.298.019.187.016.359.03.507.004.306-.055.613-.105.922-.154.892-.142 1.733-.275 2.543-.566l.13-.046c-1.601-.448-2.901-1.831-4.159-3.17l-.202-.213a.38.38 0 01-.041-.465.37.37 0 01.439-.144l.784.285c.093.033.185.071.276.11.172.073.334.141.481.161.308.042.615.091.923.139.892.141 1.73.268 2.594.247l.139-.003C5.592 9.644 4.782 7.927 4 6.268l-.128-.27a.376.376 0 01.571-.457l.659.514c.078.061.153.126.228.191.141.122.274.237.407.301.281.134.558.276.835.417.804.41 1.564.797 2.39 1.037l.132.039c-1.03-1.302-1.269-3.184-1.501-5.003l-.037-.298a.379.379 0 01.241-.4.375.375 0 01.444.142l.467.692c.055.081.107.166.159.252.097.159.188.309.294.412.225.214.445.435.666.655.638.638 1.241 1.241 1.952 1.724l.114.08c-.579-1.557-.225-3.421.118-5.225l.055-.293a.376.376 0 01.731-.034l.23.802c.028.095.051.193.074.29.043.18.083.352.153.482.147.274.29.551.431.83.41.803.797 1.562 1.323 2.242.029.036.057.073.084.11-.068-1.66.845-3.323 1.728-4.932l.142-.259a.37.37 0 01.43-.182.375.375 0 01.276.375l-.029.834c-.003.099-.012.198-.02.298-.016.186-.031.361-.003.507.055.307.105.618.155.927.141.89.274 1.729.564 2.537l.046.13c.448-1.6 1.831-2.9 3.168-4.157l.215-.203a.377.377 0 01.612.401l-.284.785c-.033.093-.073.186-.111.278-.071.172-.14.333-.16.48-.042.309-.091.619-.14.928-.141.89-.273 1.729-.246 2.588.002.046.003.093.003.139.919-1.383 2.637-2.192 4.298-2.975l.269-.127a.374.374 0 01.454.106c.109.135.11.329.002.466l-.512.657a5.352 5.352 0 01-.191.228c-.123.141-.238.274-.302.409-.135.281-.276.558-.418.836-.41.804-.796 1.563-1.036 2.388l-.039.132c1.302-1.03 3.184-1.269 5.004-1.501l.295-.037a.368.368 0 01.4.24.377.377 0 01-.141.445l-.691.467a6.376 6.376 0 01-.253.159c-.16.097-.309.188-.412.294-.215.225-.434.444-.654.663-.639.639-1.243 1.243-1.727 1.955a2.402 2.402 0 01-.083.115l.002-.001c1.557-.579 3.422-.225 5.225.118l.294.057a.375.375 0 01.033.731l-.802.23a5.593 5.593 0 01-.29.074c-.181.043-.353.082-.483.153-.275.148-.553.29-.831.432-.803.41-1.562.796-2.24 1.323-.036.029-.075.057-.111.084 1.658-.068 3.324.844 4.932 1.728l.26.143c.154.084.228.261.182.43s-.203.257-.375.276l-.834-.029c-.098-.003-.198-.012-.298-.02-.186-.016-.364-.031-.507-.003-.307.055-.618.105-.928.155-.889.141-1.728.274-2.537.564a2.886 2.886 0 01-.131.045c1.6.448 2.9 1.83 4.157 3.167l.205.218a.376.376 0 01.041.464.372.372 0 01-.442.148l-.788-.286c-.092-.033-.185-.073-.278-.111-.171-.071-.333-.14-.478-.16-.309-.042-.619-.091-.929-.14-.89-.141-1.73-.271-2.589-.246a2.179 2.179 0 01-.14.002c1.385.919 2.193 2.636 2.975 4.297l.128.271a.374.374 0 01-.105.454.377.377 0 01-.467.002l-.657-.512a5.352 5.352 0 01-.228-.191c-.141-.122-.275-.238-.41-.302-.281-.135-.557-.276-.835-.418-.804-.41-1.564-.796-2.389-1.036l-.133-.042c1.033 1.303 1.271 3.188 1.503 5.011l.036.29a.375.375 0 01-.684.259l-.467-.691c-.055-.082-.107-.167-.16-.253a2.195 2.195 0 00-.293-.413 34.021 34.021 0 01-.663-.653c-.639-.639-1.243-1.243-1.956-1.727a1.894 1.894 0 01-.115-.085l.002.004c.579 1.559.225 3.425-.119 5.23l-.054.29a.375.375 0 01-.731.034l-.231-.803c-.028-.096-.05-.192-.073-.29-.043-.181-.083-.353-.153-.483-.149-.275-.291-.555-.434-.834-.41-.802-.796-1.559-1.321-2.237l-.084-.111c.069 1.661-.845 3.325-1.729 4.934l-.142.258a.359.359 0 01-.323.195zm-1.153-6.855a.3.3 0 01.089.013l.231.059a.38.38 0 01.265.269c.067.258.141.515.233.77.315.876.46 1.792.601 2.677.048.302.096.605.15.906.011.061.018.122.022.182.601-1.166 1.056-2.286 1.01-3.38a5.423 5.423 0 01.016-.597l.009-.148a.374.374 0 01.368-.354c.084-.002.167-.007.251-.013.138.001.318.053.391.164.132.202.256.389.395.569.569.734.99 1.558 1.396 2.355.14.275.279.548.425.819.031.054.055.11.078.165.211-1.294.298-2.5-.083-3.525-.057-.153-.098-.31-.14-.47l-.043-.162a.374.374 0 01.235-.453l.119-.043c.086-.03.172-.059.256-.095a.38.38 0 01.375.05c.074.058.143.119.211.181.074.066.145.132.226.189.772.525 1.429 1.182 2.065 1.817.215.215.43.431.651.641.045.043.086.089.125.134-.199-1.296-.49-2.471-1.169-3.327-.089-.111-.165-.233-.243-.354l-.095-.147a.375.375 0 01.079-.503c.102-.081.202-.166.3-.253a.37.37 0 01.373-.073l.149.054c.123.045.244.091.371.127.892.259 1.718.679 2.518 1.087.273.139.546.278.82.411.057.028.109.057.161.09-.59-1.171-1.229-2.199-2.139-2.802a4.105 4.105 0 01-.334-.256l-.133-.108a.374.374 0 01-.085-.498c.071-.112.141-.227.208-.343a.394.394 0 01.338-.187l.129.004c.135.005.272.011.409.007.931-.032 1.845.116 2.731.255.304.048.608.097.912.138.062.009.122.02.179.034-.923-.931-1.847-1.71-2.9-2.005-.146-.039-.289-.096-.431-.151l-.157-.061a.377.377 0 01-.234-.445l.037-.142c.021-.076.042-.153.058-.229a.378.378 0 01.265-.285l.127-.036a5.81 5.81 0 00.415-.127c.874-.315 1.788-.46 2.672-.601.304-.048.61-.097.912-.151.061-.011.122-.018.182-.022-1.166-.601-2.282-1.053-3.38-1.01a5.214 5.214 0 01-.529-.014l-.161-.01a.375.375 0 01-.355-.346c-.01-.112-.018-.224-.032-.334a.376.376 0 01.164-.357c.222-.147.38-.252.532-.37.736-.57 1.562-.991 2.359-1.398.274-.14.547-.278.816-.423.054-.03.11-.055.165-.078-1.295-.21-2.501-.298-3.525.083-.204.076-.416.13-.627.185l-.123.032a.38.38 0 01-.441-.217 1.898 1.898 0 00-.075-.158l-.062-.126a.377.377 0 01.048-.396c.067-.082.137-.16.207-.238.095-.105.189-.207.269-.325.526-.772 1.183-1.429 1.818-2.064.215-.215.431-.431.641-.651.043-.045.087-.086.133-.125-1.296.199-2.47.489-3.326 1.168a7.7 7.7 0 01-.756.511.38.38 0 01-.481-.073l-.127-.14a.38.38 0 01-.075-.397 8.82 8.82 0 00.29-.834c.259-.894.679-1.721 1.087-2.519.139-.273.278-.546.411-.821.028-.055.057-.109.09-.16-1.171.59-2.198 1.229-2.802 2.139a7.712 7.712 0 01-.64.819.377.377 0 01-.473.076c-.125-.073-.308-.279-.297-.423.028-.331.038-.665.029-1.004-.03-.93.115-1.844.255-2.73.048-.304.097-.608.138-.912.009-.062.02-.122.034-.179-.931.923-1.71 1.847-2.005 2.901a7.612 7.612 0 01-.396 1.088.373.373 0 01-.421.213c-.144-.031-.321-.159-.354-.302a9.217 9.217 0 00-.305-1.079c-.315-.875-.461-1.789-.601-2.673a46.73 46.73 0 00-.151-.911 1.653 1.653 0 01-.022-.181c-.601 1.166-1.056 2.286-1.01 3.379.017.39-.002.803-.057 1.258a.376.376 0 01-.699.143 8.886 8.886 0 00-.674-1.022c-.571-.736-.992-1.562-1.399-2.361a44.714 44.714 0 00-.422-.815 1.755 1.755 0 01-.078-.165c-.211 1.294-.298 2.5.083 3.525.139.373.251.787.341 1.265a.373.373 0 01-.186.398.371.371 0 01-.436-.049l-.142-.129a7.503 7.503 0 00-.82-.682c-.767-.522-1.423-1.178-2.058-1.811a39.544 39.544 0 00-.653-.644 1.729 1.729 0 01-.125-.133c.198 1.296.489 2.47 1.168 3.327.243.306.469.65.693 1.051a.377.377 0 01-.481.527 9.072 9.072 0 00-1.146-.43c-.895-.259-1.722-.681-2.523-1.088a44.665 44.665 0 00-.819-.41 1.535 1.535 0 01-.16-.089c.59 1.171 1.229 2.198 2.139 2.803.329.219.651.476.985.786.118.11.154.284.086.431s-.224.235-.382.219a9.129 9.129 0 00-1.221-.057c-.93.032-1.847-.116-2.735-.256-.302-.048-.604-.096-.906-.137a1.418 1.418 0 01-.179-.034c.923.931 1.847 1.711 2.901 2.005.377.105.763.25 1.179.443a.375.375 0 01-.079.709 8.893 8.893 0 00-1.18.325c-.877.316-1.793.461-2.679.602-.302.048-.605.096-.905.15a1.653 1.653 0 01-.181.022c1.165.599 2.273 1.054 3.379 1.01.39-.019.8.001 1.258.057a.375.375 0 01.143.699 9.23 9.23 0 00-1.021.674c-.735.57-1.561.991-2.358 1.397-.274.141-.547.281-.818.425a1.45 1.45 0 01-.165.078c1.294.211 2.502.298 3.525-.083a7.654 7.654 0 011.181-.331.38.38 0 01.427.241c.047.13.041.334-.051.436l-.175.195c-.211.233-.411.452-.578.7-.524.77-1.18 1.426-1.814 2.061-.217.217-.433.433-.644.654a1.947 1.947 0 01-.134.125c1.296-.199 2.471-.489 3.328-1.169.273-.218.575-.42.921-.621a.377.377 0 01.49.099c.081.107.155.324.102.448a8.819 8.819 0 00-.365 1.006c-.26.895-.682 1.723-1.089 2.523-.139.273-.277.545-.41.819a1.918 1.918 0 01-.089.16c1.171-.59 2.198-1.229 2.803-2.139.192-.29.413-.554.603-.773a.377.377 0 01.503-.059c.107.077.302.304.292.434a8.986 8.986 0 00-.019.93c.03.931-.115 1.847-.256 2.736-.048.301-.096.604-.137.906-.007.062-.02.122-.034.179.931-.923 1.711-1.847 2.005-2.9.071-.258.172-.507.273-.756a.443.443 0 01.387-.274zm12.716-7.051z"/><path fill="var(--color11, #FF6B09)" d="M13.554 25.034a.3.3 0 01.089.013l.231.059a.38.38 0 01.265.269c.067.258.141.515.233.77.315.876.46 1.792.601 2.677.048.302.096.605.15.906.011.061.018.122.022.182.601-1.166 1.056-2.286 1.01-3.38a5.423 5.423 0 01.016-.597l.009-.148a.374.374 0 01.368-.354c.084-.002.167-.007.251-.013.138.001.318.053.391.164.132.202.256.389.395.569.569.734.99 1.558 1.396 2.355.14.275.279.548.425.819.031.054.055.11.078.165.211-1.294.298-2.5-.083-3.525-.057-.153-.098-.31-.14-.47l-.043-.162a.374.374 0 01.235-.453l.119-.043c.086-.03.172-.059.256-.095a.38.38 0 01.375.05c.074.058.143.119.211.181.074.066.145.132.226.189.772.525 1.429 1.182 2.065 1.817.215.215.43.431.651.641.045.043.086.089.125.134-.199-1.296-.49-2.471-1.169-3.327-.089-.111-.165-.233-.243-.354l-.095-.147a.375.375 0 01.079-.503c.102-.081.202-.166.3-.253a.37.37 0 01.373-.073l.149.054c.123.045.244.091.371.127.892.259 1.718.679 2.518 1.087.273.139.546.278.82.411.057.028.109.057.161.09-.59-1.171-1.229-2.199-2.139-2.802a4.105 4.105 0 01-.334-.256l-.133-.108a.374.374 0 01-.085-.498c.071-.112.141-.227.208-.343a.394.394 0 01.338-.187l.129.004c.135.005.272.011.409.007.931-.032 1.845.116 2.731.255.304.048.608.097.912.138.062.009.122.02.179.034-.923-.931-1.847-1.71-2.9-2.005-.146-.039-.289-.096-.431-.151l-.157-.061a.377.377 0 01-.234-.445l.037-.142c.021-.076.042-.153.058-.229a.378.378 0 01.265-.285l.127-.036a5.81 5.81 0 00.415-.127c.874-.315 1.788-.46 2.672-.601.304-.048.61-.097.912-.151.061-.011.122-.018.182-.022-1.166-.601-2.282-1.053-3.38-1.01a5.214 5.214 0 01-.529-.014l-.161-.01a.375.375 0 01-.355-.346c-.01-.112-.018-.224-.032-.334a.376.376 0 01.164-.357c.222-.147.38-.252.532-.37.736-.57 1.562-.991 2.359-1.398.274-.14.547-.278.816-.423.054-.03.11-.055.165-.078-1.295-.21-2.501-.298-3.525.083-.204.076-.416.13-.627.185l-.123.032a.38.38 0 01-.441-.217 1.898 1.898 0 00-.075-.158l-.062-.126a.377.377 0 01.048-.396c.067-.082.137-.16.207-.238.095-.105.189-.207.269-.325.526-.772 1.183-1.429 1.818-2.064.215-.215.431-.431.641-.651.043-.045.087-.086.133-.125-1.296.199-2.47.489-3.326 1.168a7.7 7.7 0 01-.756.511.38.38 0 01-.481-.073l-.127-.14a.38.38 0 01-.075-.397 8.82 8.82 0 00.29-.834c.259-.894.679-1.721 1.087-2.519.139-.273.278-.546.411-.821.028-.055.057-.109.09-.16-1.171.59-2.198 1.229-2.802 2.139a7.712 7.712 0 01-.64.819.377.377 0 01-.473.076c-.125-.073-.308-.279-.297-.423.028-.331.038-.665.029-1.004-.03-.93.115-1.844.255-2.73.048-.304.097-.608.138-.912.009-.062.02-.122.034-.179-.931.923-1.71 1.847-2.005 2.901a7.612 7.612 0 01-.396 1.088.373.373 0 01-.421.213c-.144-.031-.321-.159-.354-.302a9.217 9.217 0 00-.305-1.079c-.315-.875-.461-1.789-.601-2.673a46.73 46.73 0 00-.151-.911 1.653 1.653 0 01-.022-.181c-.601 1.166-1.056 2.286-1.01 3.379.017.39-.002.803-.057 1.258a.376.376 0 01-.699.143 8.886 8.886 0 00-.674-1.022c-.571-.736-.992-1.562-1.399-2.361a44.714 44.714 0 00-.422-.815 1.755 1.755 0 01-.078-.165c-.211 1.294-.298 2.5.083 3.525.139.373.251.787.341 1.265a.373.373 0 01-.186.398.371.371 0 01-.436-.049l-.142-.129a7.503 7.503 0 00-.82-.682c-.767-.522-1.423-1.178-2.058-1.812a43.88 43.88 0 00-.653-.643 1.44 1.44 0 01-.126-.134c.199 1.296.49 2.471 1.169 3.328.243.306.469.65.693 1.051a.377.377 0 01-.481.527 9.072 9.072 0 00-1.146-.43c-.895-.26-1.722-.681-2.523-1.089a44.665 44.665 0 00-.819-.41 1.535 1.535 0 01-.16-.089c.59 1.171 1.229 2.198 2.139 2.803.329.219.651.476.985.786.118.11.154.284.086.431s-.224.235-.382.219a9.128 9.128 0 00-1.222-.055c-.93.032-1.847-.116-2.735-.256-.302-.048-.604-.096-.906-.137a1.418 1.418 0 01-.179-.034c.923.931 1.847 1.711 2.901 2.005.377.105.763.25 1.179.443a.375.375 0 01-.079.709 8.893 8.893 0 00-1.18.325c-.877.316-1.793.461-2.679.602-.302.048-.605.096-.905.15a1.653 1.653 0 01-.181.022c1.165.599 2.273 1.054 3.379 1.01.39-.019.8.001 1.258.057a.375.375 0 01.143.699 9.23 9.23 0 00-1.021.674c-.735.57-1.561.991-2.358 1.397-.274.141-.547.281-.818.425a1.45 1.45 0 01-.165.078c1.294.211 2.502.298 3.525-.083a7.654 7.654 0 011.181-.331.38.38 0 01.427.241c.047.13.041.334-.051.436l-.175.195c-.211.233-.411.452-.578.7-.524.77-1.18 1.426-1.814 2.061-.215.217-.432.433-.643.654a1.947 1.947 0 01-.134.125c1.296-.199 2.471-.489 3.328-1.169.273-.218.575-.42.921-.621a.377.377 0 01.49.099c.081.107.155.324.102.448a8.819 8.819 0 00-.365 1.006c-.26.895-.682 1.723-1.089 2.523-.139.273-.277.545-.41.819a1.918 1.918 0 01-.089.16c1.171-.59 2.198-1.229 2.803-2.139.192-.29.413-.554.603-.773a.377.377 0 01.503-.059c.107.077.302.304.292.434a8.986 8.986 0 00-.019.93c.03.931-.115 1.847-.256 2.736-.048.301-.096.604-.137.906-.007.062-.02.122-.034.179.931-.923 1.711-1.847 2.005-2.9.071-.258.172-.507.273-.756a.443.443 0 01.387-.274z"/><path fill="var(--color12, #f9e52f)" opacity=".53" d="M23.777 16.001a7.777 7.777 0 11-15.554 0 7.777 7.777 0 0115.554 0z"/><path fill="var(--color13, #FF6B09)" opacity=".61" d="M22.447 16.001c0 3.561-2.886 6.447-6.447 6.447s-6.447-2.886-6.447-6.447S12.439 9.554 16 9.554s6.447 2.886 6.447 6.447z"/><path fill="var(--color10, #000)" d="M15.999 24.624c-4.755 0-8.623-3.869-8.623-8.624s3.868-8.623 8.623-8.623c4.755 0 8.624 3.868 8.624 8.623s-3.869 8.624-8.624 8.624zm0-16.387c-4.282 0-7.763 3.483-7.763 7.763s3.483 7.763 7.763 7.763S23.762 20.28 23.762 16s-3.482-7.763-7.763-7.763z"/><path fill="var(--color10, #000)" d="M22.31 16.203a.376.376 0 01-.375-.377 5.85 5.85 0 00-5.843-5.842.377.377 0 010-.754 6.602 6.602 0 016.594 6.595.377.377 0 01-.375.377z"/><path fill="var(--color14, #fbe68f)" opacity=".63" d="M18.712 12.919c.358 1.548-1.138 3.215-3.341 3.724s-4.279-.333-4.636-1.881c-.358-1.548 1.138-3.215 3.341-3.724s4.279.333 4.636 1.881z"/></symbol></defs></svg>