<svg width="0" height="0" class="hidden"><symbol fill="none" xmlns="http://www.w3.org/2000/svg" viewBox="0 0 14 14" id="heart"><path d="M7 13.188l-.98-.97C2.38 9.03 0 6.88 0 4.248 0 2.097 1.68.435 3.85.435A4.23 4.23 0 017 1.89 4.224 4.224 0 0110.15.436C12.32.436 14 2.099 14 4.247c0 2.634-2.38 4.783-6.02 7.97l-.98.971z" fill="#FF6B08"/></symbol><symbol viewBox="0 0 16 16" fill="none" xmlns="http://www.w3.org/2000/svg" id="arrowleft"><path d="M12.667 8H3.333M8 12.667L3.333 8 8 3.333" stroke-width="1.333" stroke-linecap="round" stroke-linejoin="round"/></symbol><symbol viewBox="0 0 16 16" fill="none" xmlns="http://www.w3.org/2000/svg" id="arrowright"><path d="M3.333 8h9.334M8 12.667L12.667 8 8 3.333" stroke-width="1.333" stroke-linecap="round" stroke-linejoin="round"/></symbol><symbol viewBox="0 0 32 32" xmlns="http://www.w3.org/2000/svg" id="login"><path d="M12 16H2v-4h10V8l6 6-6 6zM32 0v26l-12 6v-6H8v-8h2v6h10V6l8-4H10v8H8V0z"/></symbol><symbol viewBox="0 0 32 32" xmlns="http://www.w3.org/2000/svg" id="signup"><path d="M12 23c0-4.726 2.996-8.765 7.189-10.319C19.698 11.539 20 10.27 20 9c0-4.971 0-9-6-9S8 4.029 8 9c0 3.096 1.797 6.191 4 7.432v1.649c-6.784.555-12 3.888-12 7.918h12.416a10.962 10.962 0 01-.416-3z"/><path d="M23 14c-4.971 0-9 4.029-9 9s4.029 9 9 9 9-4.029 9-9-4.029-9-9-9zm5 10h-4v4h-2v-4h-4v-2h4v-4h2v4h4v2z"/></symbol><symbol viewBox="0 0 32 32" xmlns="http://www.w3.org/2000/svg" id="signout"><path d="M24 20v-4H14v-4h10V8l6 6zm-2-2v8H12v6L0 26V0h22v10h-2V2H4l8 4v18h8v-6z"/></symbol></svg>