<svg width="0" height="0" class="hidden">
  <symbol fill="none" xmlns="http://www.w3.org/2000/svg" viewBox="0 0 14 14" id="heart">
    <path d="M7 13.188l-.98-.97C2.38 9.03 0 6.88 0 4.248 0 2.097 1.68.435 3.85.435A4.23 4.23 0 017 1.89 4.224 4.224 0 0110.15.436C12.32.436 14 2.099 14 4.247c0 2.634-2.38 4.783-6.02 7.97l-.98.971z" fill="#FF6B08"></path>
  </symbol>
    <symbol viewBox="0 0 16 16" fill="none" xmlns="http://www.w3.org/2000/svg" id="arrowleft">
    <path d="M12.6667 8H3.33337" stroke-width="1.33333" stroke-linecap="round" stroke-linejoin="round"/>
    <path d="M8.00004 12.6667L3.33337 8.00004L8.00004 3.33337" stroke-width="1.33333" stroke-linecap="round" stroke-linejoin="round"/>
  </symbol>
  <symbol viewBox="0 0 16 16" fill="none" xmlns="http://www.w3.org/2000/svg" id="arrowright">
    <path d="M3.33329 8H12.6666" stroke-width="1.33333" stroke-linecap="round" stroke-linejoin="round"/>
    <path d="M7.99996 12.6666L12.6666 7.99998L7.99996 3.33331" stroke-width="1.33333" stroke-linecap="round" stroke-linejoin="round"/>
  </symbol>
</svg>
